<svg width="60" height="60" viewBox="0 0 60 60" fill="none" xmlns="http://www.w3.org/2000/svg">
													<path d="M60 30C60 46.5685 46.5685 60 30 60C13.4315 60 0 46.5685 0 30C0 13.4315 13.4315 0 30 0C46.5685 0 60 13.4315 60 30ZM6 30C6 43.2548 16.7452 54 30 54C43.2548 54 54 43.2548 54 30C54 16.7452 43.2548 6 30 6C16.7452 6 6 16.7452 6 30Z" fill="#C1BBEB"/>
													<path d="M30 60C22.0435 60 14.4129 56.8393 8.7868 51.2132C3.1607 45.5871 -2.21335e-07 37.9565 0 30C2.21335e-07 22.0435 3.16071 14.4129 8.7868 8.7868C14.4129 3.1607 22.0435 -9.48802e-08 30 0V6C23.6348 6 17.5303 8.52856 13.0294 13.0294C8.52856 17.5303 6 23.6348 6 30C6 36.3652 8.52856 42.4697 13.0294 46.9706C17.5303 51.4714 23.6348 54 30 54V60Z" fill="#4d44b5"/>
													<path d="M22.602 25.488H18.066V27.882C18.262 27.6393 18.542 27.4433 18.906 27.294C19.27 27.1353 19.6573 27.056 20.068 27.056C20.8147 27.056 21.426 27.2193 21.902 27.546C22.378 27.8727 22.7233 28.2927 22.938 28.806C23.1527 29.31 23.26 29.8513 23.26 30.43C23.26 31.5033 22.952 32.3667 22.336 33.02C21.7293 33.6733 20.8613 34 19.732 34C18.668 34 17.8187 33.734 17.184 33.202C16.5493 32.67 16.19 31.9747 16.106 31.116H18.01C18.094 31.4893 18.2807 31.788 18.57 32.012C18.8687 32.236 19.2467 32.348 19.704 32.348C20.2547 32.348 20.67 32.1753 20.95 31.83C21.23 31.4847 21.37 31.0273 21.37 30.458C21.37 29.8793 21.2253 29.4407 20.936 29.142C20.656 28.834 20.2407 28.68 19.69 28.68C19.298 28.68 18.9713 28.778 18.71 28.974C18.4487 29.17 18.262 29.4313 18.15 29.758H16.274V23.766H22.602V25.488ZM24.7518 28.764C24.7518 27.1493 25.0411 25.8847 25.6198 24.97C26.2078 24.0553 27.1784 23.598 28.5318 23.598C29.8851 23.598 30.8511 24.0553 31.4298 24.97C32.0178 25.8847 32.3118 27.1493 32.3118 28.764C32.3118 30.388 32.0178 31.662 31.4298 32.586C30.8511 33.51 29.8851 33.972 28.5318 33.972C27.1784 33.972 26.2078 33.51 25.6198 32.586C25.0411 31.662 24.7518 30.388 24.7518 28.764ZM30.3798 28.764C30.3798 28.0733 30.3331 27.4947 30.2398 27.028C30.1558 26.552 29.9784 26.1647 29.7078 25.866C29.4464 25.5673 29.0544 25.418 28.5318 25.418C28.0091 25.418 27.6124 25.5673 27.3418 25.866C27.0804 26.1647 26.9031 26.552 26.8098 27.028C26.7258 27.4947 26.6838 28.0733 26.6838 28.764C26.6838 29.4733 26.7258 30.0707 26.8098 30.556C26.8938 31.032 27.0711 31.4193 27.3418 31.718C27.6124 32.0073 28.0091 32.152 28.5318 32.152C29.0544 32.152 29.4511 32.0073 29.7218 31.718C29.9924 31.4193 30.1698 31.032 30.2538 30.556C30.3378 30.0707 30.3798 29.4733 30.3798 28.764ZM33.5785 26.3C33.5785 25.5907 33.7839 25.0353 34.1945 24.634C34.6145 24.2327 35.1512 24.032 35.8045 24.032C36.4579 24.032 36.9899 24.2327 37.4005 24.634C37.8205 25.0353 38.0305 25.5907 38.0305 26.3C38.0305 27.0187 37.8205 27.5787 37.4005 27.98C36.9899 28.3813 36.4579 28.582 35.8045 28.582C35.1512 28.582 34.6145 28.3813 34.1945 27.98C33.7839 27.5787 33.5785 27.0187 33.5785 26.3ZM42.5665 24.2L37.0645 34H35.1605L40.6485 24.2H42.5665ZM35.7905 25.208C35.2772 25.208 35.0205 25.572 35.0205 26.3C35.0205 27.0373 35.2772 27.406 35.7905 27.406C36.0425 27.406 36.2385 27.3173 36.3785 27.14C36.5185 26.9533 36.5885 26.6733 36.5885 26.3C36.5885 25.572 36.3225 25.208 35.7905 25.208ZM39.7245 31.886C39.7245 31.1673 39.9299 30.612 40.3405 30.22C40.7605 29.8187 41.2972 29.618 41.9505 29.618C42.6039 29.618 43.1312 29.8187 43.5325 30.22C43.9432 30.612 44.1485 31.1673 44.1485 31.886C44.1485 32.6047 43.9432 33.1647 43.5325 33.566C43.1312 33.9673 42.6039 34.168 41.9505 34.168C41.2879 34.168 40.7512 33.9673 40.3405 33.566C39.9299 33.1647 39.7245 32.6047 39.7245 31.886ZM41.9365 30.794C41.4045 30.794 41.1385 31.158 41.1385 31.886C41.1385 32.6233 41.4045 32.992 41.9365 32.992C42.4592 32.992 42.7205 32.6233 42.7205 31.886C42.7205 31.158 42.4592 30.794 41.9365 30.794Z" fill="#4d44b5"/>
													</svg>