<svg width="18" height="24" viewBox="0 0 18 24" fill="none" xmlns="http://www.w3.org/2000/svg">
													<path d="M12.7059 6.525C12.7059 6.73125 12.6918 6.9375 12.666 7.14141C12.6778 7.05938 12.6895 6.975 12.6989 6.89297C12.6426 7.30078 12.5348 7.69688 12.3778 8.07656C12.4082 8.00156 12.441 7.92656 12.4715 7.85156C12.3145 8.22188 12.1129 8.56875 11.8668 8.8875C11.916 8.82422 11.9653 8.76094 12.0145 8.69766C11.7707 9.01172 11.4871 9.29531 11.1731 9.53906C11.2364 9.48984 11.2996 9.44063 11.3629 9.39141C11.0442 9.63516 10.6973 9.83906 10.327 9.99609C10.402 9.96563 10.477 9.93281 10.552 9.90234C10.1723 10.0594 9.77619 10.1672 9.36838 10.2234C9.45041 10.2117 9.53479 10.2 9.61682 10.1906C9.20666 10.2445 8.79416 10.2445 8.384 10.1906C8.46603 10.2023 8.55041 10.2141 8.63244 10.2234C8.22463 10.1672 7.82853 10.0594 7.44885 9.90234C7.52385 9.93281 7.59885 9.96563 7.67385 9.99609C7.30353 9.83906 6.95666 9.6375 6.63791 9.39141C6.70119 9.44063 6.76447 9.48984 6.82775 9.53906C6.51369 9.29531 6.2301 9.01172 5.98635 8.69766C6.03556 8.76094 6.08478 8.82422 6.134 8.8875C5.89025 8.56875 5.68635 8.22188 5.52931 7.85156C5.55978 7.92656 5.59259 8.00156 5.62306 8.07656C5.46603 7.69688 5.35822 7.30078 5.30197 6.89297C5.31369 6.975 5.32541 7.05938 5.33478 7.14141C5.28088 6.73125 5.28088 6.31875 5.33478 5.9086C5.32306 5.99063 5.31135 6.075 5.30197 6.15703C5.35822 5.74922 5.46603 5.35313 5.62306 4.97344C5.59259 5.04844 5.55978 5.12344 5.52931 5.19844C5.68635 4.82813 5.88791 4.48125 6.134 4.1625C6.08478 4.22578 6.03556 4.28906 5.98635 4.35234C6.2301 4.03828 6.51369 3.75469 6.82775 3.51094C6.76447 3.56016 6.70119 3.60938 6.63791 3.6586C6.95666 3.41485 7.30353 3.21094 7.67385 3.05391C7.59885 3.08438 7.52385 3.11719 7.44885 3.14766C7.82853 2.99063 8.22463 2.88281 8.63244 2.82656C8.55041 2.83828 8.46603 2.85 8.384 2.85938C8.79416 2.80547 9.20666 2.80547 9.61682 2.85938C9.53479 2.84766 9.45041 2.83594 9.36838 2.82656C9.77619 2.88281 10.1723 2.99063 10.552 3.14766C10.477 3.11719 10.402 3.08438 10.327 3.05391C10.6973 3.21094 11.0442 3.4125 11.3629 3.6586C11.2996 3.60938 11.2364 3.56016 11.1731 3.51094C11.4871 3.75469 11.7707 4.03828 12.0145 4.35234C11.9653 4.28906 11.916 4.22578 11.8668 4.1625C12.1106 4.48125 12.3145 4.82813 12.4715 5.19844C12.441 5.12344 12.4082 5.04844 12.3778 4.97344C12.5348 5.35313 12.6426 5.74922 12.6989 6.15703C12.6871 6.075 12.6754 5.99063 12.666 5.9086C12.6918 6.1125 12.7035 6.31875 12.7059 6.525C12.7082 7.01484 13.1348 7.48594 13.6434 7.4625C14.1496 7.43906 14.5832 7.05 14.5809 6.525C14.5762 5.40234 14.2387 4.25391 13.5778 3.33985C13.3996 3.09375 13.2098 2.85235 12.9988 2.63438C12.7856 2.41406 12.5512 2.22422 12.3074 2.03906C11.8645 1.70156 11.3699 1.45313 10.8449 1.26094C8.72854 0.485158 6.17619 1.17656 4.74416 2.92031C4.54728 3.15938 4.35978 3.40781 4.20041 3.675C4.04103 3.93985 3.91681 4.2211 3.80197 4.50703C3.58634 5.03672 3.47619 5.59922 3.43166 6.16875C3.34494 7.28438 3.63556 8.44922 4.21681 9.40547C4.77697 10.3289 5.62306 11.1211 6.61213 11.5688C6.90275 11.7 7.20041 11.8219 7.50978 11.9086C7.81682 11.993 8.12853 12.0398 8.44494 12.0773C9.0215 12.1453 9.60979 12.0984 10.1793 11.9836C12.3426 11.543 14.1543 9.67969 14.4895 7.49297C14.5387 7.17422 14.5762 6.85547 14.5762 6.53203C14.5785 6.04219 14.1426 5.57109 13.6387 5.59453C13.1324 5.61094 12.7059 6 12.7059 6.525ZM15.816 21.1805C15.3567 21.1805 14.8973 21.1805 14.4379 21.1805C13.3434 21.1805 12.2512 21.1805 11.1567 21.1805C9.83947 21.1805 8.52228 21.1805 7.20275 21.1805C6.06603 21.1805 4.92931 21.1805 3.79025 21.1805C3.25822 21.1805 2.72619 21.1852 2.19415 21.1805C2.13556 21.1805 2.07697 21.1758 2.02072 21.1688C2.10275 21.1805 2.18712 21.1922 2.26915 21.2016C2.1754 21.1875 2.08634 21.1617 1.99962 21.1266C2.07462 21.157 2.14962 21.1898 2.22462 21.2203C2.13087 21.1805 2.04415 21.1289 1.96212 21.0656C2.0254 21.1148 2.08869 21.1641 2.15197 21.2133C2.08165 21.1547 2.01603 21.0914 1.95978 21.0211C2.009 21.0844 2.05822 21.1477 2.10744 21.2109C2.04415 21.1289 1.99494 21.0422 1.95275 20.9484C1.98322 21.0234 2.01603 21.0984 2.0465 21.1734C2.01134 21.0867 1.9879 20.9953 1.9715 20.9039C1.98322 20.9859 1.99494 21.0703 2.00431 21.1523C1.96681 20.8688 1.99259 20.5688 1.99259 20.2828C1.99259 19.9477 1.99259 19.6148 1.99259 19.2797C1.99259 19.0289 2.00665 18.7805 2.03947 18.532C2.02775 18.6141 2.01603 18.6984 2.00665 18.7805C2.07228 18.3 2.19884 17.8289 2.38869 17.3813C2.35822 17.4563 2.3254 17.5313 2.29494 17.6063C2.47775 17.1797 2.71212 16.7789 2.99572 16.4109C2.9465 16.4742 2.89728 16.5375 2.84806 16.6008C3.13166 16.2375 3.45744 15.9094 3.82306 15.6258C3.75978 15.675 3.6965 15.7242 3.63322 15.7734C4.00119 15.4898 4.40197 15.2555 4.82853 15.0727C4.75353 15.1031 4.67853 15.1359 4.60353 15.1664C5.05119 14.9789 5.51994 14.85 6.00275 14.7844C5.92072 14.7961 5.83635 14.8078 5.75431 14.8172C6.10119 14.7727 6.44572 14.7703 6.79494 14.7703C7.22385 14.7703 7.65275 14.7703 8.08166 14.7703C9.08244 14.7703 10.0832 14.7703 11.084 14.7703C11.4707 14.7703 11.8551 14.768 12.2418 14.8172C12.1598 14.8055 12.0754 14.7938 11.9934 14.7844C12.4739 14.85 12.9449 14.9766 13.3926 15.1664C13.3176 15.1359 13.2426 15.1031 13.1676 15.0727C13.5942 15.2555 13.9949 15.4898 14.3629 15.7734C14.2996 15.7242 14.2364 15.675 14.1731 15.6258C14.5364 15.9094 14.8645 16.2352 15.1481 16.6008C15.0989 16.5375 15.0496 16.4742 15.0004 16.4109C15.284 16.7789 15.5184 17.1797 15.7012 17.6063C15.6707 17.5313 15.6379 17.4563 15.6074 17.3813C15.7949 17.8289 15.9239 18.2977 15.9895 18.7805C15.9778 18.6984 15.966 18.6141 15.9567 18.532C16.0012 18.8859 16.0035 19.2375 16.0035 19.5938C16.0035 19.9805 16.0035 20.3672 16.0035 20.7539C16.0035 20.8875 16.0082 21.0211 15.9918 21.1523C16.0035 21.0703 16.0153 20.9859 16.0246 20.9039C16.0106 20.9977 15.9848 21.0867 15.9496 21.1734C15.9801 21.0984 16.0129 21.0234 16.0434 20.9484C16.0035 21.0422 15.952 21.1289 15.8887 21.2109C15.9379 21.1477 15.9871 21.0844 16.0364 21.0211C15.9778 21.0914 15.9145 21.157 15.8442 21.2133C15.9074 21.1641 15.9707 21.1148 16.034 21.0656C15.952 21.1289 15.8653 21.1781 15.7715 21.2203C15.8465 21.1898 15.9215 21.157 15.9965 21.1266C15.9098 21.1617 15.8184 21.1852 15.727 21.2016C15.809 21.1898 15.8934 21.1781 15.9754 21.1688C15.9239 21.1758 15.8699 21.1781 15.816 21.1805C15.5746 21.1828 15.3262 21.2836 15.1528 21.4547C14.991 21.6164 14.8668 21.8836 14.8785 22.118C14.902 22.6195 15.291 23.0625 15.816 23.0555C16.7278 23.0414 17.5293 22.4461 17.7965 21.5719C17.902 21.225 17.8785 20.8523 17.8785 20.4961C17.8785 19.6805 17.9043 18.8719 17.7637 18.0633C17.5574 16.8797 16.9621 15.7664 16.1465 14.8922C15.3309 14.018 14.234 13.3758 13.0739 13.0898C12.4082 12.9258 11.7379 12.9 11.0582 12.9C10.3598 12.9 9.66369 12.9 8.96525 12.9C8.27619 12.9 7.58947 12.9 6.90041 12.9C6.20431 12.9 5.51291 12.9328 4.83556 13.1133C3.68478 13.418 2.60197 14.0672 1.80275 14.9484C0.996497 15.8367 0.412903 16.9523 0.223059 18.143C0.0964963 18.9422 0.122278 19.7438 0.122278 20.55C0.122278 20.9203 0.101184 21.307 0.234778 21.6609C0.408215 22.1156 0.684778 22.4742 1.09025 22.7438C1.40665 22.9523 1.80744 23.0531 2.18244 23.0578C2.36525 23.0602 2.54806 23.0578 2.73087 23.0578C3.19962 23.0578 3.66603 23.0578 4.13478 23.0578C4.80041 23.0578 5.46369 23.0578 6.12931 23.0578C6.90275 23.0578 7.67619 23.0578 8.44963 23.0578C9.24416 23.0578 10.0363 23.0578 10.8309 23.0578C11.5574 23.0578 12.2817 23.0578 13.0082 23.0578C13.5778 23.0578 14.1473 23.0578 14.7145 23.0578C15.0403 23.0578 15.366 23.0578 15.6918 23.0578C15.734 23.0578 15.7762 23.0578 15.8184 23.0578C16.3082 23.0578 16.7793 22.6266 16.7559 22.1203C16.7324 21.6094 16.3434 21.1805 15.816 21.1805Z" fill="white"/>
													</svg>