<svg width="24" height="24" viewBox="0 0 24 24" fill="none" xmlns="http://www.w3.org/2000/svg">
									<path d="M21.4336 12.3979V18.6323C21.4336 19.1245 21.0352 19.5229 20.543 19.5229H14.3086C13.8164 19.5229 13.418 19.1245 13.418 18.6323V10.0073C13.418 6.95342 15.8953 4.47607 18.9492 4.47607V7.71045C18.3141 7.71045 17.7398 7.96826 17.325 8.38311C16.9102 8.79795 16.6523 9.37217 16.6523 10.0073V11.5073H20.543C21.0352 11.5073 21.4336 11.9058 21.4336 12.3979Z" fill="#FCC43E"/>
									<path d="M21.082 12.3978C21.082 13.1783 21.082 13.9564 21.082 14.7369C21.082 15.8783 21.082 17.022 21.082 18.1634C21.082 18.2947 21.082 18.4259 21.082 18.5595C21.082 18.583 21.082 18.6064 21.082 18.6298V18.6322C21.082 18.665 21.0797 18.6978 21.0773 18.7283C21.0797 18.7119 21.0914 18.665 21.075 18.7283C21.068 18.7587 21.0586 18.7892 21.0492 18.8197C21.0469 18.8337 21.0234 18.883 21.0516 18.822C21.0258 18.8783 20.9953 18.9322 20.9601 18.979C21 18.9275 20.9672 18.9697 20.9578 18.979C20.9367 19.0001 20.9133 19.0212 20.8945 19.0423C20.8523 19.0869 20.8805 19.0541 20.8945 19.0447C20.8711 19.0634 20.8453 19.0798 20.8172 19.0939C20.7984 19.1033 20.782 19.1126 20.7633 19.122C20.6836 19.1666 20.8219 19.1103 20.7328 19.1337C20.7117 19.1384 20.693 19.1455 20.6719 19.1525C20.6508 19.1572 20.632 19.1619 20.6109 19.1665C20.6531 19.1619 20.6508 19.1619 20.6086 19.1665C20.5734 19.1665 20.5406 19.1689 20.5078 19.1689C20.393 19.1689 20.2781 19.1689 20.1633 19.1689C19.0453 19.1689 17.9273 19.1689 16.8094 19.1689C15.9797 19.1689 15.1476 19.1806 14.3156 19.1689C14.2875 19.1689 14.257 19.1665 14.2289 19.1642C14.1703 19.1595 14.3039 19.1876 14.2125 19.1595C14.1867 19.1525 14.1609 19.1455 14.1375 19.1384C14.1211 19.1337 14.0578 19.108 14.1211 19.1361C14.093 19.1244 14.0648 19.1103 14.0391 19.0939C14.0133 19.0775 13.9875 19.0611 13.9617 19.0447C13.9758 19.0541 14.0039 19.0869 13.9617 19.0423C13.9406 19.0212 13.9195 18.9978 13.8984 18.979C13.8891 18.9697 13.8562 18.9275 13.8961 18.979C13.8656 18.9369 13.8422 18.8923 13.8164 18.8478C13.7719 18.7681 13.8281 18.9064 13.8047 18.8173C13.7976 18.7869 13.7883 18.7564 13.7789 18.7259C13.7508 18.6345 13.7789 18.7658 13.7742 18.7095C13.7719 18.6814 13.7719 18.6556 13.7695 18.6275V18.6251C13.7695 18.6181 13.7695 18.6134 13.7695 18.6064C13.7695 18.5783 13.7695 18.5478 13.7695 18.5197C13.7695 18.2126 13.7695 17.9056 13.7695 17.5986C13.7695 16.4337 13.7695 15.2689 13.7695 14.1041C13.7695 12.9908 13.7695 11.8775 13.7695 10.7619C13.7695 10.5181 13.7695 10.272 13.7695 10.0283C13.7695 9.98608 13.7695 9.9439 13.7695 9.90171C13.7719 9.79155 13.7766 9.68374 13.7859 9.57358C13.7906 9.51968 13.7953 9.46577 13.8 9.41186C13.8023 9.39077 13.8047 9.36968 13.807 9.34858C13.8094 9.32749 13.8211 9.25015 13.8117 9.31343C13.875 8.87515 13.9875 8.4439 14.1539 8.03374C14.1609 8.01499 14.1703 7.99624 14.1773 7.97515C14.1469 8.0478 14.1867 7.95171 14.1914 7.94468C14.2125 7.8978 14.2336 7.85093 14.257 7.80405C14.3062 7.70093 14.3578 7.60015 14.4117 7.50171C14.5102 7.32124 14.6203 7.1478 14.7398 6.9814C14.7703 6.93921 14.8008 6.89936 14.8312 6.85718C14.8922 6.77515 14.7867 6.91108 14.8523 6.8314C14.8641 6.81499 14.8781 6.79858 14.8898 6.78452C14.9601 6.6978 15.0328 6.61108 15.1101 6.52905C15.2555 6.36968 15.4078 6.21968 15.5695 6.07905C15.6469 6.01108 15.7266 5.94546 15.8062 5.88452C15.75 5.92905 15.8648 5.83999 15.8812 5.82827C15.9258 5.79546 15.9726 5.76265 16.0195 5.73218C16.193 5.61265 16.3758 5.50483 16.5609 5.4064C16.6523 5.35952 16.7461 5.31265 16.8398 5.27046C16.868 5.25874 16.8961 5.24468 16.9242 5.23296C16.9359 5.22827 16.9875 5.20718 16.9266 5.23296C16.9851 5.20952 17.0414 5.18608 17.1 5.16499C17.3062 5.08765 17.5172 5.02202 17.7305 4.97046C17.8336 4.94468 17.9367 4.92358 18.0422 4.90483C18.0937 4.89546 18.1476 4.88608 18.1992 4.87905C18.2203 4.87671 18.2414 4.87202 18.2625 4.86968C18.1828 4.8814 18.2883 4.86733 18.2976 4.86499C18.5133 4.83921 18.7312 4.82749 18.9492 4.82749C18.832 4.7103 18.7148 4.59312 18.5976 4.47593C18.5976 5.41811 18.5976 6.3603 18.5976 7.30249C18.5976 7.43843 18.5976 7.57436 18.5976 7.7103C18.7148 7.59311 18.832 7.47593 18.9492 7.35874C17.9062 7.36811 16.9336 7.98921 16.5211 8.95249C16.2609 9.56421 16.3008 10.2017 16.3008 10.8509C16.3008 11.0689 16.3008 11.2892 16.3008 11.5072C16.3008 11.697 16.4625 11.8587 16.6523 11.8587C17.2078 11.8587 17.7633 11.8587 18.3164 11.8587C19.0242 11.8587 19.7297 11.8587 20.4375 11.8587C20.468 11.8587 20.4984 11.8587 20.5289 11.8587C20.5336 11.8587 20.5383 11.8587 20.543 11.8587C20.5758 11.8587 20.6086 11.8611 20.6391 11.8634C20.5687 11.8564 20.6789 11.8751 20.7 11.8822C20.7187 11.8869 20.7398 11.8939 20.7586 11.9009C20.7258 11.8892 20.7305 11.8869 20.7586 11.9033C20.7937 11.922 20.8289 11.9431 20.8641 11.9642C20.8687 11.9666 20.9086 11.997 20.8781 11.9736C20.843 11.9455 20.9062 11.9994 20.9109 12.0064C20.925 12.0205 20.9976 12.1048 20.9555 12.0486C20.9766 12.0767 20.9953 12.1072 21.0141 12.1376C21.0234 12.1564 21.0328 12.1728 21.0422 12.1916C21.0656 12.2384 21.0258 12.1423 21.0422 12.1939C21.0539 12.2337 21.0656 12.2736 21.075 12.3134C21.0844 12.3533 21.075 12.3041 21.075 12.2994C21.0797 12.3322 21.082 12.365 21.082 12.3978C21.0844 12.5806 21.2414 12.7587 21.4336 12.7494C21.6211 12.74 21.7898 12.5947 21.7851 12.3978C21.7734 11.7087 21.2203 11.1626 20.5336 11.1556C20.3109 11.1533 20.0906 11.1556 19.868 11.1556C19.0219 11.1556 18.1734 11.1556 17.3273 11.1556C17.1023 11.1556 16.8773 11.1556 16.6523 11.1556C16.7695 11.2728 16.8867 11.39 17.0039 11.5072C17.0039 11.0759 17.0039 10.647 17.0039 10.2158C17.0039 10.1478 17.0039 10.0822 17.0039 10.0142C17.0039 9.95327 17.0062 9.89468 17.0109 9.83374C17.018 9.73765 17.0297 9.66499 17.0602 9.53843C17.1609 9.1353 17.3672 8.80249 17.6906 8.52124C17.7562 8.46265 17.7398 8.47671 17.8031 8.43218C17.8523 8.39702 17.9039 8.36421 17.9555 8.33374C18.007 8.30327 18.0609 8.27515 18.1148 8.24702C18.1359 8.2353 18.1594 8.22593 18.1805 8.21655C18.2836 8.16968 18.1242 8.23296 18.232 8.19546C18.3492 8.15561 18.4664 8.11811 18.5883 8.09468C18.6187 8.08765 18.6492 8.08296 18.6797 8.07827C18.7055 8.07358 18.7055 8.07358 18.6797 8.07827C18.6984 8.07593 18.7172 8.07358 18.7359 8.07358C18.8062 8.06655 18.8766 8.06421 18.9469 8.06421C19.1367 8.06186 19.2984 7.90483 19.2984 7.71265C19.2984 6.77046 19.2984 5.82827 19.2984 4.88608C19.2984 4.75015 19.2984 4.61421 19.2984 4.47827C19.2984 4.28843 19.1367 4.12671 18.9469 4.12671C17.0625 4.1314 15.2953 5.04546 14.182 6.55952C13.6547 7.27671 13.2937 8.12983 13.1508 9.00874C13.0828 9.42358 13.0641 9.83843 13.0641 10.258C13.0641 11.2189 13.0641 12.1798 13.0641 13.1408C13.0641 14.4064 13.0641 15.672 13.0641 16.9376C13.0641 17.3666 13.0641 17.7978 13.0641 18.2267C13.0641 18.5056 13.0406 18.8033 13.1437 19.0681C13.3336 19.5533 13.7859 19.8697 14.3086 19.8767C14.3836 19.8767 14.4609 19.8767 14.5359 19.8767C14.9812 19.8767 15.4266 19.8767 15.8719 19.8767C17.107 19.8767 18.3445 19.8767 19.5797 19.8767C19.8914 19.8767 20.2031 19.8791 20.5172 19.8767C21.2344 19.8744 21.7828 19.3048 21.7828 18.5923C21.7851 17.6525 21.7828 16.7126 21.7828 15.7728C21.7828 14.7087 21.7828 13.6447 21.7828 12.583C21.7828 12.522 21.7828 12.4611 21.7828 12.4001C21.7828 12.2173 21.6211 12.0392 21.4312 12.0486C21.2437 12.0556 21.082 12.2009 21.082 12.3978Z" fill="#FCC43E"/>
									<path d="M10.582 12.3977V18.6321C10.582 19.1243 10.1836 19.5227 9.69141 19.5227H3.45703C2.96484 19.5227 2.56641 19.1243 2.56641 18.6321V10.0071C2.56641 6.95317 5.04375 4.47583 8.09766 4.47583V7.71021C7.4625 7.71021 6.88828 7.96802 6.47344 8.38286C6.05859 8.79771 5.80078 9.37192 5.80078 10.0071V11.5071H9.69141C10.1836 11.5071 10.582 11.9055 10.582 12.3977Z" fill="#FCC43E"/>
									<path d="M10.2305 12.3978C10.2305 13.1783 10.2305 13.9564 10.2305 14.7369C10.2305 15.8783 10.2305 17.022 10.2305 18.1634C10.2305 18.2947 10.2305 18.4259 10.2305 18.5595C10.2305 18.583 10.2305 18.6064 10.2305 18.6298V18.6322C10.2305 18.665 10.2281 18.6978 10.2258 18.7283C10.2281 18.7119 10.2398 18.665 10.2234 18.7283C10.2164 18.7587 10.207 18.7892 10.1977 18.8197C10.1953 18.8337 10.1719 18.883 10.2 18.822C10.1742 18.8783 10.1437 18.9322 10.1086 18.979C10.1484 18.9275 10.1156 18.9697 10.1062 18.979C10.0852 19.0001 10.0617 19.0212 10.043 19.0423C10.0008 19.0869 10.0289 19.0541 10.043 19.0447C10.0195 19.0634 9.99374 19.0798 9.96562 19.0939C9.94687 19.1033 9.93046 19.1126 9.91171 19.122C9.83203 19.1666 9.97031 19.1103 9.88124 19.1337C9.86015 19.1384 9.8414 19.1455 9.82031 19.1525C9.79921 19.1572 9.78046 19.1619 9.75937 19.1665C9.80156 19.1619 9.79921 19.1619 9.75703 19.1665C9.72187 19.1665 9.68906 19.1689 9.65624 19.1689C9.5414 19.1689 9.42656 19.1689 9.31171 19.1689C8.19374 19.1689 7.07578 19.1689 5.95781 19.1689C5.12812 19.1689 4.29609 19.1806 3.46406 19.1689C3.43593 19.1689 3.40546 19.1665 3.37734 19.1642C3.31874 19.1595 3.45234 19.1876 3.36093 19.1595C3.33515 19.1525 3.30937 19.1455 3.28593 19.1384C3.26953 19.1337 3.20624 19.108 3.26953 19.1361C3.2414 19.1244 3.21328 19.1103 3.18749 19.0939C3.16171 19.0775 3.13593 19.0611 3.11015 19.0447C3.12421 19.0541 3.15234 19.0869 3.11015 19.0423C3.08906 19.0212 3.06796 18.9978 3.04687 18.979C3.03749 18.9697 3.00468 18.9275 3.04453 18.979C3.01406 18.9369 2.99062 18.8923 2.96484 18.8478C2.92031 18.7681 2.97656 18.9064 2.95312 18.8173C2.94609 18.7869 2.93671 18.7564 2.92734 18.7259C2.89921 18.6345 2.92734 18.7658 2.92265 18.7095C2.92031 18.6814 2.92031 18.6556 2.91796 18.6275V18.6251C2.91796 18.6181 2.91796 18.6134 2.91796 18.6064C2.91796 18.5783 2.91796 18.5478 2.91796 18.5197C2.91796 18.2126 2.91796 17.9056 2.91796 17.5986C2.91796 16.4337 2.91796 15.2689 2.91796 14.1041C2.91796 12.9908 2.91796 11.8775 2.91796 10.7619C2.91796 10.5181 2.91796 10.272 2.91796 10.0283C2.91796 9.98608 2.91796 9.9439 2.91796 9.90171C2.92031 9.79155 2.92499 9.68374 2.93437 9.57358C2.93906 9.51968 2.94374 9.46577 2.94843 9.41186C2.95078 9.39077 2.95312 9.36968 2.95546 9.34858C2.95781 9.32749 2.96953 9.25015 2.96015 9.31343C3.02343 8.87515 3.13593 8.4439 3.30234 8.03374C3.30937 8.01499 3.31874 7.99624 3.32578 7.97515C3.29531 8.0478 3.33515 7.95171 3.33984 7.94468C3.36093 7.8978 3.38203 7.85093 3.40546 7.80405C3.45468 7.70093 3.50624 7.60015 3.56015 7.50171C3.65859 7.32124 3.76874 7.1478 3.88828 6.9814C3.91874 6.93921 3.94921 6.89936 3.97968 6.85718C4.04062 6.77515 3.93515 6.91108 4.00078 6.8314C4.01249 6.81499 4.02656 6.79858 4.03828 6.78452C4.10859 6.6978 4.18124 6.61108 4.25859 6.52905C4.4039 6.36968 4.55624 6.21968 4.71796 6.07905C4.79531 6.01108 4.87499 5.94546 4.95468 5.88452C4.89843 5.92905 5.01328 5.83999 5.02968 5.82827C5.07421 5.79546 5.12109 5.76265 5.16796 5.73218C5.3414 5.61265 5.52421 5.50483 5.70937 5.4064C5.80078 5.35952 5.89453 5.31265 5.98828 5.27046C6.0164 5.25874 6.04453 5.24468 6.07265 5.23296C6.08437 5.22827 6.13593 5.20718 6.07499 5.23296C6.13359 5.20952 6.18984 5.18608 6.24843 5.16499C6.45468 5.08765 6.66562 5.02202 6.8789 4.97046C6.98203 4.94468 7.08515 4.92358 7.19062 4.90483C7.24218 4.89546 7.29609 4.88608 7.34765 4.87905C7.36874 4.87671 7.38984 4.87202 7.41093 4.86968C7.33124 4.8814 7.43671 4.86733 7.44609 4.86499C7.66171 4.83921 7.87968 4.82749 8.09765 4.82749C7.98046 4.7103 7.86328 4.59312 7.74609 4.47593C7.74609 5.41811 7.74609 6.3603 7.74609 7.30249C7.74609 7.43843 7.74609 7.57436 7.74609 7.7103C7.86328 7.59311 7.98046 7.47593 8.09765 7.35874C7.05468 7.36811 6.08203 7.98921 5.66953 8.95249C5.40937 9.56421 5.44921 10.2017 5.44921 10.8509C5.44921 11.0689 5.44921 11.2892 5.44921 11.5072C5.44921 11.697 5.61093 11.8587 5.80078 11.8587C6.35624 11.8587 6.91171 11.8587 7.46484 11.8587C8.17265 11.8587 8.87812 11.8587 9.58593 11.8587C9.6164 11.8587 9.64687 11.8587 9.67734 11.8587C9.68203 11.8587 9.68671 11.8587 9.6914 11.8587C9.72421 11.8587 9.75703 11.8611 9.78749 11.8634C9.71718 11.8564 9.82734 11.8751 9.84843 11.8822C9.86718 11.8869 9.88828 11.8939 9.90703 11.9009C9.87421 11.8892 9.8789 11.8869 9.90703 11.9033C9.94218 11.922 9.97734 11.9431 10.0125 11.9642C10.0172 11.9666 10.057 11.997 10.0266 11.9736C9.9914 11.9455 10.0547 11.9994 10.0594 12.0064C10.0734 12.0205 10.1461 12.1048 10.1039 12.0486C10.125 12.0767 10.1437 12.1072 10.1625 12.1376C10.1719 12.1564 10.1812 12.1728 10.1906 12.1916C10.2141 12.2384 10.1742 12.1423 10.1906 12.1939C10.2023 12.2337 10.2141 12.2736 10.2234 12.3134C10.2328 12.3533 10.2234 12.3041 10.2234 12.2994C10.2281 12.3322 10.2305 12.365 10.2305 12.3978C10.2328 12.5806 10.3898 12.7587 10.582 12.7494C10.7695 12.74 10.9383 12.5947 10.9336 12.3978C10.9219 11.7087 10.3687 11.1626 9.68203 11.1556C9.45937 11.1533 9.23906 11.1556 9.0164 11.1556C8.17031 11.1556 7.32187 11.1556 6.47577 11.1556C6.25077 11.1556 6.02578 11.1556 5.80078 11.1556C5.91796 11.2728 6.03515 11.39 6.15234 11.5072C6.15234 11.0759 6.15234 10.647 6.15234 10.2158C6.15234 10.1478 6.15234 10.0822 6.15234 10.0142C6.15234 9.95327 6.15468 9.89468 6.15937 9.83374C6.1664 9.73765 6.17812 9.66499 6.20859 9.53843C6.30937 9.1353 6.51562 8.80249 6.83906 8.52124C6.90468 8.46265 6.88828 8.47671 6.95156 8.43218C7.00078 8.39702 7.05234 8.36421 7.1039 8.33374C7.15546 8.30327 7.20937 8.27515 7.26328 8.24702C7.28437 8.2353 7.30781 8.22593 7.3289 8.21655C7.43203 8.16968 7.27265 8.23296 7.38046 8.19546C7.49765 8.15561 7.61484 8.11811 7.73671 8.09468C7.76718 8.08765 7.79765 8.08296 7.82812 8.07827C7.8539 8.07358 7.8539 8.07358 7.82812 8.07827C7.84687 8.07593 7.86562 8.07358 7.88437 8.07358C7.95468 8.06655 8.02499 8.06421 8.09531 8.06421C8.28515 8.06186 8.44687 7.90483 8.44687 7.71265C8.44687 6.77046 8.44687 5.82827 8.44687 4.88608C8.44687 4.75015 8.44687 4.61421 8.44687 4.47827C8.44687 4.28843 8.28515 4.12671 8.09531 4.12671C6.21093 4.1314 4.44374 5.04546 3.33046 6.55952C2.80312 7.27671 2.44218 8.12983 2.29921 9.00874C2.23124 9.42358 2.21249 9.83843 2.21249 10.258C2.21249 11.2189 2.21249 12.1798 2.21249 13.1408C2.21249 14.4064 2.21249 15.672 2.21249 16.9376C2.21249 17.3666 2.21249 17.7978 2.21249 18.2267C2.21249 18.5056 2.18906 18.8033 2.29218 19.0681C2.48203 19.5533 2.93437 19.8697 3.45703 19.8767C3.53203 19.8767 3.60937 19.8767 3.68437 19.8767C4.12968 19.8767 4.57499 19.8767 5.02031 19.8767C6.25546 19.8767 7.49296 19.8767 8.72812 19.8767C9.03984 19.8767 9.35156 19.8791 9.66562 19.8767C10.3828 19.8744 10.9312 19.3048 10.9312 18.5923C10.9336 17.6525 10.9312 16.7126 10.9312 15.7728C10.9312 14.7087 10.9312 13.6447 10.9312 12.583C10.9312 12.522 10.9312 12.4611 10.9312 12.4001C10.9312 12.2173 10.7695 12.0392 10.5797 12.0486C10.3922 12.0556 10.2305 12.2009 10.2305 12.3978Z" fill="#FCC43E"/>
									</svg>