<svg width="20" height="16" viewBox="0 0 20 16" fill="none" xmlns="http://www.w3.org/2000/svg">
													<path d="M17 0H3C2.20435 0 1.44129 0.316071 0.87868 0.87868C0.316071 1.44129 0 2.20435 0 3V13C0 13.7956 0.316071 14.5587 0.87868 15.1213C1.44129 15.6839 2.20435 16 3 16H17C17.7956 16 18.5587 15.6839 19.1213 15.1213C19.6839 14.5587 20 13.7956 20 13V3C20 2.20435 19.6839 1.44129 19.1213 0.87868C18.5587 0.316071 17.7956 0 17 0ZM16.427 2L10.6 6.8C10.4335 6.92669 10.2312 6.9976 10.022 7.00263C9.81285 7.00766 9.60742 6.94655 9.435 6.828L3.573 2H16.427ZM17 14H3C2.73478 14 2.48043 13.8946 2.29289 13.7071C2.10536 13.5196 2 13.2652 2 13V3.3L8.2 8.4C8.71593 8.78632 9.34347 8.99444 9.988 8.993C10.6551 8.99199 11.3037 8.77403 11.836 8.372L18 3.3V13C18 13.2652 17.8946 13.5196 17.7071 13.7071C17.5196 13.8946 17.2652 14 17 14Z" fill="#FCFCFC"/>
													</svg>