<svg width="500" height="500" viewBox="0 0 500 500" fill="none" xmlns="http://www.w3.org/2000/svg">
<g clip-path="url(#clip0_1_2)">
<path d="M444.71 330.2H263.96C260.73 330.2 258.1 327.57 258.1 324.34V61.06C258.1 57.83 260.73 55.2 263.96 55.2H444.71C447.94 55.2 450.57 57.83 450.57 61.06V324.33C450.57 327.57 447.94 330.2 444.71 330.2ZM263.96 55.45C260.87 55.45 258.35 57.97 258.35 61.06V324.33C258.35 327.42 260.87 329.94 263.96 329.94H444.71C447.8 329.94 450.32 327.42 450.32 324.33V61.06C450.32 57.97 447.8 55.45 444.71 55.45H263.96Z" fill="#E0E0E0"/>
<path d="M236.28 330.2H55.53C52.3 330.2 49.67 327.57 49.67 324.34V61.06C49.67 57.83 52.3 55.2 55.53 55.2H236.28C239.51 55.2 242.14 57.83 242.14 61.06V324.33C242.14 327.57 239.51 330.2 236.28 330.2ZM55.53 55.45C52.44 55.45 49.92 57.97 49.92 61.06V324.33C49.92 327.42 52.44 329.94 55.53 329.94H236.28C239.37 329.94 241.89 327.42 241.89 324.33V61.06C241.89 57.97 239.37 55.45 236.28 55.45H55.53Z" fill="#E0E0E0"/>
<path d="M500.79 391.27H0.790009V391.52H500.79V391.27Z" fill="#E0E0E0"/>
<path d="M68.52 405.53H52.46V405.78H68.52V405.53Z" fill="#E0E0E0"/>
<path d="M224.67 402.82H171.14V403.07H224.67V402.82Z" fill="#E0E0E0"/>
<path d="M105.77 414.82H69.52V415.07H105.77V414.82Z" fill="#E0E0E0"/>
<path d="M425.4 402.95H382.21V403.2H425.4V402.95Z" fill="#E0E0E0"/>
<path d="M437.57 402.69H431.24V402.94H437.57V402.69Z" fill="#E0E0E0"/>
<path d="M370.89 408.92H317V409.17H370.89V408.92Z" fill="#E0E0E0"/>
<path d="M230.67 71.38H60.84V203.35H230.67V71.38Z" fill="#EBEBEB"/>
<path d="M225.51 76.85H65.97V197.91H225.51V76.85Z" fill="#FAFAFA"/>
<path d="M142.83 133.91H123.59V161.12H142.83V133.91Z" fill="#EBEBEB"/>
<path d="M167.91 141.94H147.65V171.06H167.91V141.94Z" fill="#F0F0F0"/>
<path d="M143.056 90.6302L139.259 119.503L159.346 122.145L163.144 93.2721L143.056 90.6302Z" fill="#F0F0F0"/>
<path d="M212.49 90.68H192.23V119.8H212.49V90.68Z" fill="#F0F0F0"/>
<path d="M188.29 87.62H168.03V116.74H188.29V87.62Z" fill="#F0F0F0"/>
<path d="M92.41 86.75H79.84V99.32H92.41V86.75Z" fill="#F5F5F5"/>
<path d="M98.9635 86.0947L94.471 97.8351L106.211 102.328L110.704 90.5873L98.9635 86.0947Z" fill="#F0F0F0"/>
<path d="M86.14 88.35C86.14 88.76 85.81 89.09 85.4 89.09C84.99 89.09 84.66 88.76 84.66 88.35C84.66 87.94 84.99 87.61 85.4 87.61C85.81 87.62 86.14 87.95 86.14 88.35Z" fill="#EBEBEB"/>
<path d="M100.6 88.35C100.6 88.76 100.27 89.09 99.86 89.09C99.45 89.09 99.12 88.76 99.12 88.35C99.12 87.94 99.45 87.61 99.86 87.61C100.27 87.62 100.6 87.95 100.6 88.35Z" fill="#E0E0E0"/>
<path d="M153.27 118.64C153.27 119.05 152.94 119.38 152.53 119.38C152.12 119.38 151.79 119.05 151.79 118.64C151.79 118.23 152.12 117.9 152.53 117.9C152.93 117.9 153.27 118.23 153.27 118.64Z" fill="#EBEBEB"/>
<path d="M133.95 135.88C133.95 136.29 133.62 136.62 133.21 136.62C132.8 136.62 132.47 136.29 132.47 135.88C132.47 135.47 132.8 135.14 133.21 135.14C133.62 135.14 133.95 135.48 133.95 135.88Z" fill="#EBEBEB"/>
<path d="M145 92.76C145 93.17 144.67 93.5 144.26 93.5C143.85 93.5 143.52 93.17 143.52 92.76C143.52 92.35 143.85 92.02 144.26 92.02C144.67 92.03 145 92.36 145 92.76Z" fill="#E0E0E0"/>
<path d="M178.89 89.28C178.89 89.69 178.56 90.02 178.15 90.02C177.74 90.02 177.41 89.69 177.41 89.28C177.41 88.87 177.74 88.54 178.15 88.54C178.56 88.54 178.89 88.87 178.89 89.28Z" fill="#E0E0E0"/>
<path d="M203.1 92.03C203.1 92.44 202.77 92.77 202.36 92.77C201.95 92.77 201.62 92.44 201.62 92.03C201.62 91.62 201.95 91.29 202.36 91.29C202.77 91.29 203.1 91.62 203.1 92.03Z" fill="#E0E0E0"/>
<path d="M215.64 163.22H175.28V188.52H215.64V163.22Z" fill="#F5F5F5"/>
<path d="M114.16 158.39H78.93V186.2H114.16V158.39Z" fill="#F5F5F5"/>
<path d="M300.614 129.852C315.815 129.52 327.87 116.928 327.538 101.727C327.207 86.5255 314.615 74.4711 299.413 74.8025C284.212 75.134 272.158 87.7258 272.489 102.927C272.821 118.129 285.412 130.183 300.614 129.852Z" fill="#E6E6E6"/>
<path d="M316.627 115.927C324.135 106.743 322.776 93.211 313.592 85.7028C304.407 78.1947 290.875 79.5535 283.367 88.7379C275.859 97.9223 277.218 111.454 286.402 118.962C295.587 126.471 309.119 125.112 316.627 115.927Z" fill="#F5F5F5"/>
<path d="M306.9 108.96L299.11 102.76V87.86H300.84V101.92L307.99 107.62L306.9 108.96Z" fill="#E0E0E0"/>
<path d="M360.54 75.2H352.97V108.53H360.54V75.2Z" fill="#E0E0E0"/>
<path d="M397.06 75.2H389.49V108.53H397.06V75.2Z" fill="#E0E0E0"/>
<path d="M369.88 79.59H362.31V108.53H369.88V79.59Z" fill="#EBEBEB"/>
<path d="M387.27 79.59H379.7V108.53H387.27V79.59Z" fill="#EBEBEB"/>
<path d="M431.08 79.59H423.51V108.53H431.08V79.59Z" fill="#EBEBEB"/>
<path d="M397.05 82.43L404.44 80.75L410.56 109.01L403.17 110.69L397.05 82.43Z" fill="#EBEBEB"/>
<path d="M376.4 73.55H372.62V108.53H376.4V73.55Z" fill="#E0E0E0"/>
<path d="M421.36 73.55H417.58V108.53H421.36V73.55Z" fill="#E0E0E0"/>
<path d="M125.56 261.08H73.65V391.27H125.56V261.08Z" fill="#E0E0E0"/>
<path d="M121.08 264.79H78.12V388.32H121.08V264.79Z" fill="#F0F0F0"/>
<path d="M113.26 273.93H85.94V275.21H113.26V273.93Z" fill="#E0E0E0"/>
<path d="M113.26 279.43H85.94V280.71H113.26V279.43Z" fill="#E0E0E0"/>
<path d="M113.26 284.93H85.94V286.21H113.26V284.93Z" fill="#E0E0E0"/>
<path d="M113.26 290.43H85.94V291.71H113.26V290.43Z" fill="#E0E0E0"/>
<path d="M113.26 295.94H85.94V297.22H113.26V295.94Z" fill="#E0E0E0"/>
<path d="M113.26 301.44H85.94V302.72H113.26V301.44Z" fill="#E0E0E0"/>
<path d="M113.26 346.2H85.94V347.48H113.26V346.2Z" fill="#E0E0E0"/>
<path d="M113.26 351.7H85.94V352.98H113.26V351.7Z" fill="#E0E0E0"/>
<path d="M113.26 357.2H85.94V358.48H113.26V357.2Z" fill="#E0E0E0"/>
<path d="M113.26 362.7H85.94V363.98H113.26V362.7Z" fill="#E0E0E0"/>
<path d="M113.26 368.21H85.94V369.49H113.26V368.21Z" fill="#E0E0E0"/>
<path d="M113.26 373.71H85.94V374.99H113.26V373.71Z" fill="#E0E0E0"/>
<path d="M114.61 320.23C114.61 321.41 113.7 322.37 112.58 322.37C111.45 322.38 110.53 321.43 110.53 320.25C110.53 319.07 111.44 318.11 112.56 318.11C112.57 318.11 112.57 318.11 112.58 318.11C113.7 318.12 114.6 319.07 114.61 320.23Z" fill="#E0E0E0"/>
<path d="M179 261.08H127.09V391.27H179V261.08Z" fill="#E0E0E0"/>
<path d="M174.53 264.79H131.57V388.32H174.53V264.79Z" fill="#F0F0F0"/>
<path d="M166.71 273.93H139.39V275.21H166.71V273.93Z" fill="#E0E0E0"/>
<path d="M166.71 279.43H139.39V280.71H166.71V279.43Z" fill="#E0E0E0"/>
<path d="M166.71 284.93H139.39V286.21H166.71V284.93Z" fill="#E0E0E0"/>
<path d="M166.71 290.43H139.39V291.71H166.71V290.43Z" fill="#E0E0E0"/>
<path d="M166.71 295.94H139.39V297.22H166.71V295.94Z" fill="#E0E0E0"/>
<path d="M166.71 301.44H139.39V302.72H166.71V301.44Z" fill="#E0E0E0"/>
<path d="M166.71 346.2H139.39V347.48H166.71V346.2Z" fill="#E0E0E0"/>
<path d="M166.71 351.7H139.39V352.98H166.71V351.7Z" fill="#E0E0E0"/>
<path d="M166.71 357.2H139.39V358.48H166.71V357.2Z" fill="#E0E0E0"/>
<path d="M166.71 362.7H139.39V363.98H166.71V362.7Z" fill="#E0E0E0"/>
<path d="M166.71 368.21H139.39V369.49H166.71V368.21Z" fill="#E0E0E0"/>
<path d="M166.71 373.71H139.39V374.99H166.71V373.71Z" fill="#E0E0E0"/>
<path d="M168.04 320.23C168.04 321.4 167.06 322.35 165.86 322.35C164.65 322.35 163.68 321.4 163.68 320.23C163.68 319.06 164.66 318.11 165.86 318.11C167.07 318.12 168.04 319.07 168.04 320.23Z" fill="#E0E0E0"/>
<path d="M254.42 261.08H202.51V391.27H254.42V261.08Z" fill="#E0E0E0"/>
<path d="M249.94 264.79H206.98V388.32H249.94V264.79Z" fill="#F0F0F0"/>
<path d="M216.79 273.93H244.11L242.12 275.2H214.8L216.79 273.93Z" fill="#E0E0E0"/>
<path d="M242.12 279.43H214.8V280.71H242.12V279.43Z" fill="#E0E0E0"/>
<path d="M242.12 284.93H214.8V286.21H242.12V284.93Z" fill="#E0E0E0"/>
<path d="M242.12 290.43H214.8V291.71H242.12V290.43Z" fill="#E0E0E0"/>
<path d="M242.12 295.94H214.8V297.22H242.12V295.94Z" fill="#E0E0E0"/>
<path d="M242.12 301.44H214.8V302.72H242.12V301.44Z" fill="#E0E0E0"/>
<path d="M242.12 346.2H214.8V347.48H242.12V346.2Z" fill="#E0E0E0"/>
<path d="M242.12 351.7H214.8V352.98H242.12V351.7Z" fill="#E0E0E0"/>
<path d="M242.12 357.2H214.8V358.48H242.12V357.2Z" fill="#E0E0E0"/>
<path d="M242.12 362.7H214.8V363.98H242.12V362.7Z" fill="#E0E0E0"/>
<path d="M242.12 368.21H214.8V369.49H242.12V368.21Z" fill="#E0E0E0"/>
<path d="M242.12 373.71H214.8V374.99H242.12V373.71Z" fill="#E0E0E0"/>
<path d="M243.47 320.23C243.47 321.41 242.56 322.37 241.44 322.37C240.31 322.38 239.39 321.43 239.39 320.25C239.39 319.07 240.3 318.11 241.42 318.11C241.43 318.11 241.43 318.11 241.44 318.11C242.56 318.12 243.46 319.07 243.47 320.23Z" fill="#E0E0E0"/>
<path d="M307.86 261.08H255.95V391.27H307.86V261.08Z" fill="#E0E0E0"/>
<path d="M303.39 264.79H260.43V388.32H303.39V264.79Z" fill="#F0F0F0"/>
<path d="M295.57 273.93H268.25V275.21H295.57V273.93Z" fill="#E0E0E0"/>
<path d="M295.57 279.43H268.25V280.71H295.57V279.43Z" fill="#E0E0E0"/>
<path d="M295.57 284.93H268.25V286.21H295.57V284.93Z" fill="#E0E0E0"/>
<path d="M295.57 290.43H268.25V291.71H295.57V290.43Z" fill="#E0E0E0"/>
<path d="M295.57 295.94H268.25V297.22H295.57V295.94Z" fill="#E0E0E0"/>
<path d="M295.57 301.44H268.25V302.72H295.57V301.44Z" fill="#E0E0E0"/>
<path d="M295.57 346.2H268.25V347.48H295.57V346.2Z" fill="#E0E0E0"/>
<path d="M295.57 351.7H268.25V352.98H295.57V351.7Z" fill="#E0E0E0"/>
<path d="M295.57 357.2H268.25V358.48H295.57V357.2Z" fill="#E0E0E0"/>
<path d="M295.57 362.7H268.25V363.98H295.57V362.7Z" fill="#E0E0E0"/>
<path d="M295.57 368.21H268.25V369.49H295.57V368.21Z" fill="#E0E0E0"/>
<path d="M295.57 373.71H268.25V374.99H295.57V373.71Z" fill="#E0E0E0"/>
<path d="M296.9 320.23C296.9 321.4 295.92 322.35 294.72 322.35C293.52 322.35 292.54 321.4 292.54 320.23C292.54 319.06 293.52 318.11 294.72 318.11C295.93 318.12 296.9 319.07 296.9 320.23Z" fill="#E0E0E0"/>
<path d="M382.5 261.08H330.59V391.27H382.5V261.08Z" fill="#E0E0E0"/>
<path d="M378.02 264.79H335.06V388.32H378.02V264.79Z" fill="#F0F0F0"/>
<path d="M370.2 273.93H342.88V275.21H370.2V273.93Z" fill="#E0E0E0"/>
<path d="M370.2 279.43H342.88V280.71H370.2V279.43Z" fill="#E0E0E0"/>
<path d="M370.2 284.93H342.88V286.21H370.2V284.93Z" fill="#E0E0E0"/>
<path d="M370.2 290.43H342.88V291.71H370.2V290.43Z" fill="#E0E0E0"/>
<path d="M370.2 295.94H342.88V297.22H370.2V295.94Z" fill="#E0E0E0"/>
<path d="M370.2 301.44H342.88V302.72H370.2V301.44Z" fill="#E0E0E0"/>
<path d="M370.2 346.2H342.88V347.48H370.2V346.2Z" fill="#E0E0E0"/>
<path d="M370.2 351.7H342.88V352.98H370.2V351.7Z" fill="#E0E0E0"/>
<path d="M370.2 357.2H342.88V358.48H370.2V357.2Z" fill="#E0E0E0"/>
<path d="M370.2 362.7H342.88V363.98H370.2V362.7Z" fill="#E0E0E0"/>
<path d="M370.2 368.21H342.88V369.49H370.2V368.21Z" fill="#E0E0E0"/>
<path d="M370.2 373.71H342.88V374.99H370.2V373.71Z" fill="#E0E0E0"/>
<path d="M371.55 320.23C371.55 321.41 370.64 322.37 369.52 322.37C368.39 322.38 367.47 321.43 367.47 320.25C367.46 319.07 368.38 318.11 369.5 318.11C369.51 318.11 369.51 318.11 369.52 318.11C370.64 318.12 371.55 319.07 371.55 320.23Z" fill="#E0E0E0"/>
<path d="M435.94 261.08H384.03V391.27H435.94V261.08Z" fill="#E0E0E0"/>
<path d="M431.47 264.79H388.51V388.32H431.47V264.79Z" fill="#F0F0F0"/>
<path d="M423.65 273.93H396.33V275.21H423.65V273.93Z" fill="#E0E0E0"/>
<path d="M423.65 279.43H396.33V280.71H423.65V279.43Z" fill="#E0E0E0"/>
<path d="M423.65 284.93H396.33V286.21H423.65V284.93Z" fill="#E0E0E0"/>
<path d="M423.65 290.43H396.33V291.71H423.65V290.43Z" fill="#E0E0E0"/>
<path d="M423.65 295.94H396.33V297.22H423.65V295.94Z" fill="#E0E0E0"/>
<path d="M423.65 301.44H396.33V302.72H423.65V301.44Z" fill="#E0E0E0"/>
<path d="M423.65 346.2H396.33V347.48H423.65V346.2Z" fill="#E0E0E0"/>
<path d="M423.65 351.7H396.33V352.98H423.65V351.7Z" fill="#E0E0E0"/>
<path d="M423.65 357.2H396.33V358.48H423.65V357.2Z" fill="#E0E0E0"/>
<path d="M423.65 362.7H396.33V363.98H423.65V362.7Z" fill="#E0E0E0"/>
<path d="M423.65 368.21H396.33V369.49H423.65V368.21Z" fill="#E0E0E0"/>
<path d="M423.65 373.71H396.33V374.99H423.65V373.71Z" fill="#E0E0E0"/>
<path d="M424.99 320.23C424.99 321.4 424.01 322.35 422.81 322.35C421.6 322.35 420.63 321.4 420.63 320.23C420.63 319.06 421.61 318.11 422.81 318.11C424.01 318.12 424.98 319.07 424.99 320.23Z" fill="#E0E0E0"/>
<path d="M436.6 106.22H346.05V115.86H436.6V106.22Z" fill="#EBEBEB"/>
<path d="M360.54 132.3H352.97V165.63H360.54V132.3Z" fill="#E0E0E0"/>
<path d="M397.06 132.3H389.49V165.63H397.06V132.3Z" fill="#E0E0E0"/>
<path d="M369.88 136.68H362.31V165.62H369.88V136.68Z" fill="#EBEBEB"/>
<path d="M387.27 136.68H379.7V165.62H387.27V136.68Z" fill="#EBEBEB"/>
<path d="M431.08 136.68H423.51V165.62H431.08V136.68Z" fill="#EBEBEB"/>
<path d="M397.05 139.53L404.44 137.84L410.56 166.1L403.17 167.78L397.05 139.53Z" fill="#EBEBEB"/>
<path d="M376.4 130.65H372.62V165.63H376.4V130.65Z" fill="#E0E0E0"/>
<path d="M421.36 130.65H417.58V165.63H421.36V130.65Z" fill="#E0E0E0"/>
<path d="M436.6 163.32H346.05V172.96H436.6V163.32Z" fill="#EBEBEB"/>
<path d="M464.25 454.44C464.25 457.83 370.73 460.57 255.37 460.57C140.01 460.57 46.5 457.82 46.5 454.44C46.5 451.05 140.02 448.31 255.38 448.31C370.74 448.31 464.25 451.05 464.25 454.44Z" fill="#EBEBEB"/>
<path d="M345.83 219.48C358.019 219.48 367.9 209.599 367.9 197.41C367.9 185.221 358.019 175.34 345.83 175.34C333.641 175.34 323.76 185.221 323.76 197.41C323.76 209.599 333.641 219.48 345.83 219.48Z" fill="#407BFF"/>
<path d="M342.51 214.39L337.76 217.51L340.31 224.21L345.5 219.44L342.51 214.39Z" fill="#407BFF"/>
<path d="M347.124 185.908L346.916 201.226H344.502L344.294 185.908H347.124ZM345.709 207.387C345.196 207.387 344.755 207.203 344.388 206.835C344.02 206.467 343.836 206.027 343.836 205.513C343.836 205 344.02 204.559 344.388 204.192C344.755 203.824 345.196 203.64 345.709 203.64C346.223 203.64 346.663 203.824 347.031 204.192C347.398 204.559 347.582 205 347.582 205.513C347.582 205.853 347.496 206.165 347.322 206.45C347.156 206.734 346.93 206.963 346.646 207.137C346.368 207.303 346.056 207.387 345.709 207.387Z" fill="white"/>
<path d="M358.6 176C365.02 179.21 369.61 185.83 370.36 192.96" stroke="#407BFF" stroke-width="0.5" stroke-miterlimit="10" stroke-linecap="round" stroke-linejoin="round"/>
<path d="M370.58 196.25C370.77 197.33 370.74 198.44 370.49 199.51" stroke="#407BFF" stroke-width="0.5" stroke-miterlimit="10" stroke-linecap="round" stroke-linejoin="round"/>
<path d="M242.22 179.97C242.22 179.97 269.32 183.01 276.38 200.39L298.43 186.46C298.43 186.46 280.41 167.88 263.98 168.59L242.22 179.97Z" fill="#263238"/>
<path opacity="0.9" d="M242.22 179.97C242.22 179.97 269.32 183.01 276.38 200.39L298.43 186.46C298.43 186.46 280.41 167.88 263.98 168.59L242.22 179.97Z" fill="white"/>
<path d="M257.57 179.78L269.42 172.32" stroke="#263238" stroke-width="0.5" stroke-miterlimit="10" stroke-linecap="round" stroke-linejoin="round"/>
<path d="M262.84 181.73L274.69 174.27" stroke="#263238" stroke-width="0.5" stroke-miterlimit="10" stroke-linecap="round" stroke-linejoin="round"/>
<path d="M268.12 183.67L279.96 176.22" stroke="#263238" stroke-width="0.5" stroke-miterlimit="10" stroke-linecap="round" stroke-linejoin="round"/>
<path d="M271.98 186.89L283.82 179.44" stroke="#263238" stroke-width="0.5" stroke-miterlimit="10" stroke-linecap="round" stroke-linejoin="round"/>
<path d="M276.27 190.32L288.12 182.86" stroke="#263238" stroke-width="0.5" stroke-miterlimit="10" stroke-linecap="round" stroke-linejoin="round"/>
<path d="M46.31 217.19C46.31 217.19 53.84 243.4 40.48 256.55L61.77 271.62C61.77 271.62 72.06 247.87 65.14 232.96L46.31 217.19Z" fill="#263238"/>
<path opacity="0.9" d="M46.31 217.19C46.31 217.19 53.84 243.4 40.48 256.55L61.77 271.62C61.77 271.62 72.06 247.87 65.14 232.96L46.31 217.19Z" fill="white"/>
<path d="M52.35 231.31L63.76 239.41" stroke="#263238" stroke-width="0.5" stroke-miterlimit="10" stroke-linecap="round" stroke-linejoin="round"/>
<path d="M52.56 236.92L63.98 245.03" stroke="#263238" stroke-width="0.5" stroke-miterlimit="10" stroke-linecap="round" stroke-linejoin="round"/>
<path d="M52.78 242.54L64.19 250.64" stroke="#263238" stroke-width="0.5" stroke-miterlimit="10" stroke-linecap="round" stroke-linejoin="round"/>
<path d="M51.27 247.33L62.69 255.44" stroke="#263238" stroke-width="0.5" stroke-miterlimit="10" stroke-linecap="round" stroke-linejoin="round"/>
<path d="M49.74 252.61L61.16 260.72" stroke="#263238" stroke-width="0.5" stroke-miterlimit="10" stroke-linecap="round" stroke-linejoin="round"/>
<path d="M238.03 309.87C238.03 309.87 224.41 286.25 234.21 270.26L209.91 260.76C209.91 260.76 205.64 286.29 215.95 299.09L238.03 309.87Z" fill="#263238"/>
<path opacity="0.7" d="M238.03 309.87C238.03 309.87 224.41 286.25 234.21 270.26L209.91 260.76C209.91 260.76 205.64 286.29 215.95 299.09L238.03 309.87Z" fill="white"/>
<path d="M228.77 297.63L215.74 292.51" stroke="#263238" stroke-width="0.5" stroke-miterlimit="10" stroke-linecap="round" stroke-linejoin="round"/>
<path d="M227.21 292.23L214.18 287.11" stroke="#263238" stroke-width="0.5" stroke-miterlimit="10" stroke-linecap="round" stroke-linejoin="round"/>
<path d="M225.65 286.83L212.62 281.72" stroke="#263238" stroke-width="0.5" stroke-miterlimit="10" stroke-linecap="round" stroke-linejoin="round"/>
<path d="M225.96 281.81L212.93 276.7" stroke="#263238" stroke-width="0.5" stroke-miterlimit="10" stroke-linecap="round" stroke-linejoin="round"/>
<path d="M226.17 276.32L213.14 271.21" stroke="#263238" stroke-width="0.5" stroke-miterlimit="10" stroke-linecap="round" stroke-linejoin="round"/>
<path d="M386.47 133.37C386.47 133.37 359.3 135.7 348.97 120.05L330.08 138.04C330.08 138.04 351.39 152.72 367.36 148.81L386.47 133.37Z" fill="#263238"/>
<path opacity="0.8" d="M386.47 133.37C386.47 133.37 359.3 135.7 348.97 120.05L330.08 138.04C330.08 138.04 351.39 152.72 367.36 148.81L386.47 133.37Z" fill="white"/>
<path d="M371.46 136.57L361.3 146.2" stroke="#263238" stroke-width="0.5" stroke-miterlimit="10" stroke-linecap="round" stroke-linejoin="round"/>
<path d="M365.91 135.7L355.75 145.33" stroke="#263238" stroke-width="0.5" stroke-miterlimit="10" stroke-linecap="round" stroke-linejoin="round"/>
<path d="M360.35 134.82L350.2 144.45" stroke="#263238" stroke-width="0.5" stroke-miterlimit="10" stroke-linecap="round" stroke-linejoin="round"/>
<path d="M355.94 132.42L345.78 142.05" stroke="#263238" stroke-width="0.5" stroke-miterlimit="10" stroke-linecap="round" stroke-linejoin="round"/>
<path d="M351.05 129.9L340.9 139.53" stroke="#263238" stroke-width="0.5" stroke-miterlimit="10" stroke-linecap="round" stroke-linejoin="round"/>
<path d="M135.69 173.67C135.69 173.67 108.83 168.97 102.86 151.19L79.99 163.74C79.99 163.74 96.83 183.39 113.27 183.7L135.69 173.67Z" fill="#263238"/>
<path opacity="0.8" d="M135.69 173.67C135.69 173.67 108.83 168.97 102.86 151.19L79.99 163.74C79.99 163.74 96.83 183.39 113.27 183.7L135.69 173.67Z" fill="white"/>
<path d="M115.22 170.65L102.93 177.36" stroke="#263238" stroke-width="0.5" stroke-miterlimit="10" stroke-linecap="round" stroke-linejoin="round"/>
<path d="M110.07 168.38L97.79 175.1" stroke="#263238" stroke-width="0.5" stroke-miterlimit="10" stroke-linecap="round" stroke-linejoin="round"/>
<path d="M106.42 164.93L94.14 171.64" stroke="#263238" stroke-width="0.5" stroke-miterlimit="10" stroke-linecap="round" stroke-linejoin="round"/>
<path d="M102.34 161.24L90.06 167.96" stroke="#263238" stroke-width="0.5" stroke-miterlimit="10" stroke-linecap="round" stroke-linejoin="round"/>
<path d="M421.37 210.82L414.69 248.49C414.69 248.49 429.31 249.97 437.39 257.71C441.24 261.39 442.57 263.55 442.57 263.55L449.8 225.11C449.8 225.12 445.25 209.93 421.37 210.82Z" fill="#263238"/>
<path opacity="0.8" d="M421.37 210.82L414.69 248.49C414.69 248.49 429.31 249.97 437.39 257.71C441.24 261.39 442.57 263.55 442.57 263.55L449.8 225.11C449.8 225.12 445.25 209.93 421.37 210.82Z" fill="white"/>
<path d="M427.33 219.07C434.23 218.83 441.15 222.4 444.95 228.16" stroke="#263238" stroke-width="0.5" stroke-miterlimit="10" stroke-linecap="round" stroke-linejoin="round"/>
<path d="M425.58 224.39C432.48 224.15 439.4 227.72 443.2 233.48" stroke="#263238" stroke-width="0.5" stroke-miterlimit="10" stroke-linecap="round" stroke-linejoin="round"/>
<path d="M423.82 229.7C430.72 229.46 438.65 233.54 442.45 239.31" stroke="#263238" stroke-width="0.5" stroke-miterlimit="10" stroke-linecap="round" stroke-linejoin="round"/>
<path d="M423 235.41C429.56 235.19 437.41 239.28 441.03 244.8" stroke="#263238" stroke-width="0.5" stroke-miterlimit="10" stroke-linecap="round" stroke-linejoin="round"/>
<path d="M421.62 241.31C428.18 241.09 436.03 245.18 439.65 250.7" stroke="#263238" stroke-width="0.5" stroke-miterlimit="10" stroke-linecap="round" stroke-linejoin="round"/>
<path d="M177.73 123.7C177.37 123.6 175.15 127.02 175.15 127.02L188.14 136.4L207.56 132.27L228.16 113.74L227.61 109.96L223.66 107.68L221.89 108.49L221.37 106.79C221.37 106.79 219.6 108.78 217.97 110.19C216.35 111.59 203.94 115.36 202.98 123.48C202.98 123.48 199.22 120.6 194.93 121.6C190.64 122.6 182.09 124.88 177.73 123.7Z" fill="#263238"/>
<path opacity="0.8" d="M177.73 123.7C177.37 123.6 175.15 127.02 175.15 127.02L188.14 136.4L207.56 132.27L228.16 113.74L227.61 109.96L223.66 107.68L221.89 108.49L221.37 106.79C221.37 106.79 219.6 108.78 217.97 110.19C216.35 111.59 203.94 115.36 202.98 123.48C202.98 123.48 199.22 120.6 194.93 121.6C190.64 122.6 182.09 124.88 177.73 123.7Z" fill="white"/>
<path d="M172.43 126.74L187.54 158.04L210.41 156.96C210.41 156.96 212.34 158.66 215.79 155.7L235.04 142.39L229.1 108.93L206.79 124.22C206.79 124.22 204.09 126.92 200.13 126.2L172.43 126.74Z" fill="#407BFF"/>
<path opacity="0.3" d="M210.41 156.96L200.14 126.2C200.14 126.2 202 126.56 203.74 125.97C205.5 125.38 206.8 124.22 206.8 124.22L215.79 155.7C215.79 155.71 212.75 158.47 210.41 156.96Z" fill="black"/>
<path d="M427.75 334.09H363.14V341.46H427.75V334.09Z" fill="#407BFF"/>
<path opacity="0.8" d="M427.75 335.73H397.87V339.99H427.75V335.73Z" fill="white"/>
<path opacity="0.3" d="M395.45 334.09H363.14V341.46H395.45V334.09Z" fill="black"/>
<path d="M322.04 371.02C321.24 356.65 319.32 339.54 316.29 324.67C315.54 320.99 311.6 318.47 307.33 318.93L282.51 321.63C278.38 321.9 274.17 323.28 271.57 326.08C267.59 330.37 268.35 336.55 269.32 342C271.22 352.66 273.12 363.32 275.02 373.98C275.62 377.35 276.5 381.12 279.77 383C282.41 384.52 285.84 384.33 288.99 384.06C296.82 383.4 304.63 382.61 312.43 381.69C315.07 381.38 317.91 380.97 319.79 379.32C322.16 377.25 322.2 373.95 322.04 371.02Z" fill="#407BFF"/>
<path opacity="0.2" d="M316.85 329.61C316.53 326.79 314.15 324.66 311.31 324.65L290.01 324.59C289.72 324.59 289.42 324.61 289.13 324.66L288.14 324.81C285.01 325.3 282.91 328.28 283.51 331.39L293.09 380.42C296.93 383.72 318.95 381.33 320.48 377.43C321.72 374.29 318.26 342.13 316.85 329.61Z" fill="black"/>
<path d="M334.3 308.26L341.11 307.33L350.95 383.78L344.13 384.72L334.3 308.26Z" fill="#263238"/>
<path d="M291.67 308.27L298.49 307.34L308.32 383.79L301.51 384.72L291.67 308.27Z" fill="#263238"/>
<g opacity="0.3">
<path d="M334.3 308.26L341.11 307.33L350.95 383.78L344.13 384.72L334.3 308.26Z" fill="white"/>
</g>
<g opacity="0.4">
<path d="M291.67 308.27L298.49 307.34L308.32 383.79L301.51 384.72L291.67 308.27Z" fill="white"/>
</g>
<path d="M348.22 339.17H296.82C294.02 339.17 291.66 337.09 291.3 334.31L287.65 305.81C287.35 303.45 289.02 301.29 291.39 300.99C291.57 300.97 291.75 300.96 291.92 300.96H343.32C346.12 300.96 348.49 303.04 348.84 305.82L352.49 334.29C352.8 336.65 351.15 338.82 348.79 339.13C348.6 339.16 348.41 339.17 348.22 339.17Z" fill="#263238"/>
<path opacity="0.6" d="M348.22 339.17H296.82C294.02 339.17 291.66 337.09 291.3 334.31L287.65 305.81C287.35 303.45 289.02 301.29 291.39 300.99C291.57 300.97 291.75 300.96 291.92 300.96H343.32C346.12 300.96 348.49 303.04 348.84 305.82L352.49 334.29C352.8 336.65 351.15 338.82 348.79 339.13C348.6 339.16 348.41 339.17 348.22 339.17Z" fill="white"/>
<path d="M342.57 456.35H352.16L353.34 405.67L353.83 384.26H340.91L341.4 405.67L342.57 456.35Z" fill="#263238"/>
<path opacity="0.4" d="M342.57 456.35H352.16L353.34 405.67L353.83 384.26H340.91L341.4 405.67L342.57 456.35Z" fill="white"/>
<path opacity="0.2" d="M353.83 384.26L353.34 406.26H341.4L340.91 384.26H353.83Z" fill="black"/>
<path d="M391.53 456.35L387.36 385.77H376.13L381.96 456.35H391.53Z" fill="#263238"/>
<path opacity="0.5" d="M381.95 456.35H391.52L387.98 396.22L387.36 385.63H376.13L377 396.22L381.95 456.35Z" fill="white"/>
<path d="M312.77 456.35L318.61 385.77H307.37L303.2 456.35H312.77Z" fill="#263238"/>
<path opacity="0.5" d="M312.78 456.35L317.73 396.22L318.6 385.63H307.37L306.75 396.22L303.21 456.35H312.78Z" fill="white"/>
<path opacity="0.2" d="M318.6 385.63L317.73 396.63H306.75L307.37 385.63H318.6Z" fill="black"/>
<path d="M300.96 381.75H393.77C395.99 381.75 397.79 383.55 397.79 385.77C397.79 387.99 395.99 389.79 393.77 389.79H300.96C298.74 389.79 296.94 387.99 296.94 385.77C296.94 383.55 298.74 381.75 300.96 381.75Z" fill="#263238"/>
<path opacity="0.6" d="M300.96 381.75H393.77C395.99 381.75 397.79 383.55 397.79 385.77C397.79 387.99 395.99 389.79 393.77 389.79H300.96C298.74 389.79 296.94 387.99 296.94 385.77C296.94 383.55 298.74 381.75 300.96 381.75Z" fill="white"/>
<path d="M296.05 300.96L285.85 363.45L290.75 373.93C290.75 373.93 300.76 325.73 302.43 316.36C304.11 306.99 303.56 300.95 303.56 300.95C301.26 300.56 298.73 300.32 296.05 300.96Z" fill="#407BFF"/>
<path d="M287.62 307.54L280.15 321.91V322.78L289.58 320.86L287.62 307.54Z" fill="#407BFF"/>
<path opacity="0.3" d="M284.84 362.92C285.89 358.66 286.49 356.17 287.54 351.91" stroke="#263238" stroke-width="0.5" stroke-miterlimit="10" stroke-linecap="round" stroke-linejoin="round"/>
<path opacity="0.3" d="M278.19 326.48C279.57 324.24 282.12 318.36 282.12 318.36" stroke="#263238" stroke-width="0.5" stroke-miterlimit="10" stroke-linecap="round" stroke-linejoin="round"/>
<path opacity="0.3" d="M277.67 362.92C277.67 362.92 274.32 345.29 272.66 330.55C272.66 330.55 272.43 325.13 275.15 323.48" stroke="#263238" stroke-width="0.5" stroke-miterlimit="10" stroke-linecap="round" stroke-linejoin="round"/>
<path d="M316.95 293.53L290.42 276.25L274.84 248.59L267.25 254.03C267.25 254.03 276.46 282.8 282.78 288.67C289.1 294.53 311.41 308.83 311.41 308.83L316.95 293.53Z" fill="#B97964"/>
<path d="M275.02 251.22C275.02 251.22 277.3 248.51 277.02 245.6C276.74 242.69 277.29 240.28 276.93 238.13C276.57 235.98 274.68 237.06 274.13 238.56C273.59 240.06 273.31 243.2 272.25 242.61C271.19 242.02 265.79 233.06 264.22 232.4C262.65 231.75 263.07 233.47 263.07 233.47C263.07 233.47 261.84 231.47 260.7 231.64C259.56 231.81 259.95 233.3 259.95 233.3C259.95 233.3 259.08 231.99 258.22 232.71C257.36 233.43 261.5 241.96 261.46 242.39C261.46 242.39 259.67 236.96 258.23 236.91C256.79 236.86 257.63 239.94 258.24 242.41C258.86 244.88 260.51 247.51 262.28 249.42C264.48 251.8 266.93 255.58 269.82 254.77C272.72 253.96 275.02 251.22 275.02 251.22Z" fill="#B97964"/>
<g opacity="0.2">
<path d="M259.94 233.71C261.33 236 262.63 238.34 263.84 240.71C263.23 241.05 262.65 241.43 262.09 241.85C261.82 242.07 262.24 242.4 262.52 242.19C264.2 240.91 266.19 240.01 268.4 239.53C268.76 239.45 268.58 238.99 268.22 239.07C267.67 239.19 267.15 239.33 266.63 239.51C266.65 239.47 266.64 239.42 266.62 239.37C265.82 237.45 264.77 235.63 263.49 233.9C263.29 233.64 262.81 233.89 263.01 234.16C264.26 235.85 265.29 237.63 266.07 239.5C266.1 239.57 265.72 240.31 265.79 240.34C265.13 240.57 264.93 240.14 264.32 240.45C263.11 238.08 261.81 235.75 260.42 233.45C260.24 233.18 259.77 233.43 259.94 233.71Z" fill="black"/>
</g>
<g opacity="0.2">
<path d="M269.26 250.98C268.51 247.89 269.6 245.08 272.04 243.67C272.32 243.51 272.02 243.03 271.75 243.18C269.1 244.7 267.97 247.73 268.77 251.07C268.85 251.42 269.33 251.31 269.26 250.98Z" fill="black"/>
</g>
<path opacity="0.2" d="M259.19 237.65C259.91 238.88 260.88 241.11 261.32 242.46" stroke="black" stroke-width="0.5" stroke-miterlimit="10" stroke-linecap="round" stroke-linejoin="round"/>
<path d="M349.26 288.62L370.1 266.06L378.86 237.16L388.79 238.82C388.79 238.82 384.68 269.27 380.05 276.54C375.42 283.81 359.98 304.18 359.98 304.18L349.26 288.62Z" fill="#B97964"/>
<path d="M380.14 240.18C380.14 240.18 376.86 238.83 375.77 236.12C374.67 233.4 373.08 231.53 372.4 229.45C371.73 227.37 373.9 227.46 375.08 228.54C376.26 229.62 377.95 232.28 378.62 231.26C379.29 230.24 379.94 219.8 381.03 218.5C382.12 217.2 382.54 218.92 382.54 218.92C382.54 218.92 382.7 216.58 383.79 216.21C384.88 215.84 385.22 217.34 385.22 217.34C385.22 217.34 385.39 215.77 386.48 216.02C387.57 216.26 387.83 225.74 388.08 226.1C388.08 226.1 387.16 220.45 388.42 219.75C389.68 219.04 390.35 222.16 390.95 224.63C391.54 227.1 391.29 230.2 390.6 232.71C389.75 235.83 389.31 240.32 386.38 240.94C383.43 241.55 380.14 240.18 380.14 240.18Z" fill="#B97964"/>
<g opacity="0.2">
<path d="M385.44 217.69C385.27 220.36 385.19 223.04 385.2 225.7C385.9 225.72 386.59 225.79 387.28 225.9C387.62 225.97 387.4 226.46 387.06 226.4C384.98 226.04 382.8 226.16 380.62 226.75C380.27 226.84 380.21 226.35 380.56 226.26C381.1 226.11 381.63 226 382.17 225.91C382.13 225.88 382.12 225.83 382.11 225.78C381.94 223.71 382.02 221.61 382.36 219.49C382.42 219.17 382.96 219.16 382.91 219.5C382.58 221.57 382.49 223.63 382.66 225.65C382.66 225.73 383.35 226.21 383.3 226.26C383.99 226.16 383.97 225.69 384.65 225.68C384.63 223.02 384.71 220.35 384.89 217.67C384.92 217.36 385.46 217.36 385.44 217.69Z" fill="black"/>
</g>
<g opacity="0.2">
<path d="M385.14 237.31C384.38 234.22 382.11 232.23 379.3 232.11C378.98 232.1 379.02 231.53 379.34 231.54C382.4 231.66 384.8 233.83 385.63 237.16C385.7 237.51 385.22 237.64 385.14 237.31Z" fill="black"/>
</g>
<path opacity="0.2" d="M387.92 220.84C387.85 222.27 388.02 224.68 388.25 226.09" stroke="black" stroke-width="0.5" stroke-miterlimit="10" stroke-linecap="round" stroke-linejoin="round"/>
<path d="M346.86 288.05L362.83 273.09L378.12 284.59C378.12 284.59 361.12 305.89 357.82 309.21C354.52 312.53 346.86 288.05 346.86 288.05Z" fill="#407BFF"/>
<path opacity="0.4" d="M346.86 288.05L362.83 273.09L378.12 284.59C378.12 284.59 361.12 305.89 357.82 309.21C354.52 312.53 346.86 288.05 346.86 288.05Z" fill="white"/>
<path d="M305.9 356.61C307.04 351.53 306.77 343.23 306.77 343.23C306.77 324.69 307.48 301.76 308.17 295.35C308.44 292.83 307.3 289.33 313.82 287.49C320.28 285.66 331.79 285.73 348.89 286.21C348.89 286.21 352.92 293.38 357.82 306.98C357.82 306.98 359.34 321.23 360.39 330.43L363.15 351.3C359.45 357.03 339.36 361.4 305.9 356.61Z" fill="#407BFF"/>
<path opacity="0.4" d="M305.9 356.61C307.04 351.53 306.77 343.23 306.77 343.23C306.77 324.69 307.48 301.76 308.17 295.35C308.44 292.83 307.3 289.33 313.82 287.49C320.28 285.66 331.79 285.73 348.89 286.21C348.89 286.21 352.92 293.38 357.82 306.98C357.82 306.98 359.34 321.23 360.39 330.43L363.15 351.3C359.45 357.03 339.36 361.4 305.9 356.61Z" fill="white"/>
<path d="M318.95 290.35L299.72 279.91L291.5 297.81C291.5 297.81 308.18 310.98 312.21 313.36C316.23 315.75 318.95 290.35 318.95 290.35Z" fill="#407BFF"/>
<path opacity="0.4" d="M318.95 290.35L299.72 279.91L291.5 297.81C291.5 297.81 308.18 310.98 312.21 313.36C316.23 315.75 318.95 290.35 318.95 290.35Z" fill="white"/>
<path opacity="0.2" d="M314.71 287.67C317.13 289.29 318.64 292 319.4 294.81" stroke="black" stroke-width="0.5" stroke-miterlimit="10" stroke-linecap="round" stroke-linejoin="round"/>
<path opacity="0.2" d="M358.37 308.58C357.09 303.03 355.8 297.47 354.52 291.92" stroke="black" stroke-width="0.5" stroke-miterlimit="10" stroke-linecap="round" stroke-linejoin="round"/>
<g opacity="0.4">
<path d="M348.28 318.92C351.16 317.45 352.96 313.98 352.24 310.83C351.52 307.68 348.13 305.3 344.96 305.95C342.15 306.53 340.14 310.59 340.09 313.93C339.43 310.86 335.41 307.35 332.53 307.39C329.25 307.44 326.4 310.68 326.7 313.95C327 317.22 330.3 319.88 333.56 319.55C330.52 320.2 328.38 323.61 329.11 326.63C329.84 329.65 333.31 331.7 336.31 330.88C339.31 330.06 341.26 326.54 340.36 323.56C341.39 326.17 343.29 328.64 345.99 329.43C348.68 330.22 352.09 328.67 352.55 325.91C353.01 323.08 350.53 320.71 348.28 318.92Z" fill="white"/>
</g>
<path d="M340.77 321.35C342.366 321.35 343.66 320.056 343.66 318.46C343.66 316.864 342.366 315.57 340.77 315.57C339.174 315.57 337.88 316.864 337.88 318.46C337.88 320.056 339.174 321.35 340.77 321.35Z" fill="white"/>
<path d="M353.17 253.07C355.47 258.62 359.94 263.24 365.42 265.7" stroke="#263238" stroke-width="0.75" stroke-miterlimit="10" stroke-linecap="round" stroke-linejoin="round"/>
<path d="M353.16 251.66L341.81 279.07C349.35 279.7 357.1 276.11 361.5 269.96C357.11 264.78 354.18 258.37 353.16 251.66Z" fill="#263238"/>
<path d="M314.9 228.07C312.31 226.92 309.15 227.5 306.88 229.2C304.62 230.9 303.22 233.59 302.74 236.38C302.33 238.73 302.66 241.43 304.47 242.99C306.05 244.35 308.44 244.47 310.37 243.68C312.3 242.89 313.82 241.33 315.01 239.62L318.63 234.97C319.24 232.2 317.49 229.22 314.9 228.07Z" fill="#263238"/>
<path d="M319.52 236.02C318.8 234.85 317.3 234.29 315.94 234.5C314.58 234.71 313.39 235.61 312.61 236.74C311.57 238.25 311.23 240.26 311.87 241.98C312.19 242.84 312.91 243.13 313.79 243.22C315.67 243.41 317.55 242.57 318.73 241.08C318.98 240.76 319.21 240.42 319.41 240.06C320.07 238.82 320.26 237.23 319.52 236.02Z" fill="#407BFF"/>
<path d="M325.2 269.84C326.4 273.34 325.97 272.97 325.75 276.67C325.52 280.67 325.2 286.07 325.2 286.07C325.66 286.99 329.99 289.99 333.77 291.31C340.09 293.52 342.38 291.93 341.71 286.59C341.22 282.72 342.57 279.83 345.6 277.84C352.48 273.21 325.2 269.84 325.2 269.84Z" fill="#B97964"/>
<path opacity="0.2" d="M325.2 269.84C326.4 273.34 326.77 273.95 327.25 277.62C330.42 283.33 336.16 284.94 341.63 285.68C341.55 283.43 342.27 279.45 345.58 277.78C352.48 273.21 325.2 269.84 325.2 269.84Z" fill="black"/>
<path d="M347.16 237.01C347.16 237.01 354.63 242.09 352.57 250.94C350.51 259.79 337.13 243.36 337.13 243.36L347.16 237.01Z" fill="#263238"/>
<path d="M315.23 258.08C319.86 269.23 321.92 276.01 330.36 279.66C343.06 285.19 357.15 274.65 356.38 262.22C355.74 251.03 348.26 234.7 334.17 234.38C320.08 234.06 310.62 246.96 315.23 258.08Z" fill="#B97964"/>
<path d="M337.17 249.36C337.24 249.23 337.27 249.08 337.25 248.94C337.15 248.56 336.76 248.33 336.38 248.42C334.14 248.89 332.28 250.44 331.41 252.55C331.28 252.91 331.47 253.31 331.83 253.45C331.83 253.45 331.83 253.45 331.84 253.45C332.21 253.57 332.61 253.38 332.75 253.02C333.49 251.35 334.99 250.15 336.78 249.81C336.96 249.71 337.1 249.56 337.17 249.36Z" fill="#263238"/>
<path d="M351.48 245.09C351.61 245.02 351.72 244.92 351.79 244.79C351.94 244.43 351.77 244.01 351.4 243.86C349.31 242.93 346.9 243.09 344.95 244.27C344.63 244.48 344.54 244.92 344.75 245.24C344.75 245.25 344.76 245.25 344.76 245.26C344.99 245.57 345.42 245.66 345.75 245.45C347.33 244.53 349.25 244.45 350.9 245.23C351.11 245.26 351.32 245.21 351.48 245.09Z" fill="#263238"/>
<path d="M346.2 257.33L350.28 259.1C350.28 259.1 349.75 260.71 346.59 261.9L346.2 257.33Z" fill="#A24E3F"/>
<path d="M337.93 238.13C337.93 238.13 330.85 231.76 328.17 232.28C325.49 232.8 317.22 235.54 312.8 243.64C308.39 251.74 308.11 267.45 308.14 269.96C308.21 275.89 307.93 283.73 307.93 283.73L326.55 283.62C329.1 278.36 324.83 264.18 326.82 262.21C332.16 256.92 334.25 251.24 335.83 248.18C337.56 244.84 338.05 238.76 338.05 238.76L347.05 240.21L351.4 243.85C351.4 243.85 349.94 240.69 347.5 236.94C345.06 233.19 335.31 230.89 331.53 231.63C327.75 232.37 328.34 233.62 328.34 233.62L337.93 238.13Z" fill="#263238"/>
<path d="M327.27 262.78C327.27 262.78 322.95 256.9 320.05 259.73C317.15 262.56 320.34 273.31 325.35 272.15C330.36 270.99 330.35 265.76 327.27 262.78Z" fill="#B97964"/>
<path d="M348.62 265.51C348.81 266.94 348.02 269.53 347.58 270.44L346.69 270.46C342.67 270.52 340.77 269.22 339.89 267.74C339.26 266.58 339.05 265.24 339.31 263.95C341.48 265.2 345.21 265.43 347.27 265.48C348.08 265.54 348.62 265.51 348.62 265.51Z" fill="#263238"/>
<path d="M347.23 265.51L346.88 266.97C343.07 267.01 340.38 266.53 339.17 265.4C339.14 264.93 339.18 264.45 339.29 263.98C341.44 265.23 345.17 265.47 347.23 265.51Z" fill="white"/>
<path d="M346.68 270.49C342.66 270.55 340.76 269.25 339.88 267.77C341.42 267.78 342.95 268.06 344.39 268.6C345.33 268.98 346.13 269.64 346.68 270.49Z" fill="#C05854"/>
<path opacity="0.2" d="M322.69 263.01C321.57 264.9 322.64 267.62 324.49 269" stroke="black" stroke-width="0.5" stroke-miterlimit="10" stroke-linecap="round" stroke-linejoin="round"/>
<path d="M334.55 258.57C334.77 259.75 335.59 260.6 336.37 260.44C337.15 260.28 337.55 259.2 337.36 258.02C337.16 256.84 336.31 255.99 335.53 256.15C334.75 256.3 334.36 257.39 334.55 258.57Z" fill="#263238"/>
<path d="M346.84 254.75C347.07 255.93 347.89 256.79 348.66 256.62C349.43 256.46 349.85 255.37 349.65 254.19C349.45 253.01 348.61 252.18 347.83 252.32C347.05 252.46 346.64 253.57 346.84 254.75Z" fill="#263238"/>
<path d="M306.21 282.85C305.63 270.49 309.28 252.35 312.43 245.03" stroke="#263238" stroke-width="0.75" stroke-miterlimit="10" stroke-linecap="round" stroke-linejoin="round"/>
<path d="M363.73 375.36L380.79 384.43C380.79 384.43 376.19 397.04 375.3 402.95C373.44 415.28 374.21 447.47 374.21 447.47L382.94 447.89C382.94 447.89 398.55 395.47 400.62 387.82C402.63 380.39 404.07 374.87 400.62 370.29C397.17 365.7 375.54 358.86 375.54 358.86L363.73 375.36Z" fill="#B97964"/>
<path d="M375.47 384.15C368.33 383.15 353.74 380.77 342.57 380.2L329.57 379.56C300.64 378.04 358.04 351.64 358.04 351.64C358.04 351.64 377.21 357.07 392.34 363.12C384.48 370.68 381.35 377.97 375.47 384.15Z" fill="#407BFF"/>
<path d="M307.9 352.07C307.9 352.07 308.45 359.16 308.32 366.95C308.15 377.76 310.55 383.84 329.73 383.84C364.84 383.84 361.58 364.94 358.61 348.28L307.9 352.07Z" fill="#407BFF"/>
<path opacity="0.2" d="M349.98 356.16L357.47 352.65L357.81 357.12C357.81 357.12 371.98 366.03 377.12 370.94C382.15 375.74 377.53 381.92 377.53 381.92L372.89 387.92L353.18 381.39L349.98 356.16Z" fill="black"/>
<path d="M337.83 382.21L355.71 390.13C355.71 390.13 351.01 404.12 350.37 410.06C349.39 419.15 347.92 451.64 347.92 451.64L357.11 449.31C357.11 449.31 373.47 401.17 375.53 393.52C377.54 386.09 378.98 380.57 375.53 375.99C372.08 371.4 352.87 361.17 352.87 361.17L337.83 382.21Z" fill="#B97964"/>
<path d="M350.22 388.17C339.4 386.43 329.27 386.14 318.84 382.79C316.07 381.88 309.47 368.04 310.15 363.33C312.51 346.79 346.45 353.37 346.45 353.37C346.45 353.37 361.97 364.94 369.27 369.35L350.22 388.17Z" fill="#407BFF"/>
<path d="M384.19 444.4H381.26C380.6 444.4 379.99 444.82 379.59 445.5C377.9 448.4 376.64 447.31 374.8 444.58C373.63 444.41 373.32 446.1 373.22 446.55L371.03 456.58C370.84 457.42 371.22 458.29 371.89 458.53C372.01 458.57 372.13 458.59 372.25 458.59C375.8 458.59 377.48 458.59 381.9 458.59H395.42C399.11 458.59 400.18 454.06 397.72 453.3C390.89 451.4 386.68 449.04 384.57 446.54C384.22 446.08 384.62 445.76 384.19 444.4Z" fill="#263238"/>
<path d="M390.54 447.25C390.85 446.97 391.03 446.52 391.04 446.05C391.07 445.79 390.97 445.54 390.8 445.4C389.88 444.58 386.23 446.74 385.81 446.99C385.76 447.01 385.73 447.06 385.71 447.11C385.68 447.22 385.72 447.33 385.81 447.37C386.71 447.64 387.63 447.79 388.55 447.82C389.25 447.9 389.94 447.7 390.54 447.25ZM390.57 445.74C390.64 445.8 390.68 445.91 390.67 446.02C390.65 446.37 390.52 446.69 390.31 446.9C389.48 447.68 387.47 447.35 386.39 447.09C387.91 446.25 390.06 445.3 390.57 445.74Z" fill="#407BFF"/>
<path d="M385.94 447.42C387.04 446.84 389.34 444.57 389.22 443.36C389.2 443.11 389.06 442.81 388.56 442.72C386.55 442.43 385.7 446.97 385.7 447.16C385.68 447.24 385.7 447.32 385.75 447.38C385.79 447.39 385.83 447.39 385.86 447.38L385.94 447.42ZM388.49 443.1C388.86 443.15 388.86 443.32 388.86 443.38C388.97 444.11 387.29 446 386.1 446.8C386.35 445.74 387.08 443.09 388.35 443.09L388.49 443.1Z" fill="#407BFF"/>
<path d="M386.22 447.24C385.21 447.41 384.28 448.17 383.74 449.26" stroke="#407BFF" stroke-width="0.5" stroke-miterlimit="10" stroke-linecap="round" stroke-linejoin="round"/>
<path d="M388.04 448.97C387.03 449.14 386.1 449.9 385.56 450.99" stroke="#407BFF" stroke-width="0.5" stroke-miterlimit="10" stroke-linecap="round" stroke-linejoin="round"/>
<path d="M390.3 450.42C389.29 450.59 388.36 451.35 387.82 452.44" stroke="#407BFF" stroke-width="0.5" stroke-miterlimit="10" stroke-linecap="round" stroke-linejoin="round"/>
<path d="M358.73 444.4H355.8C355.14 444.4 354.53 444.82 354.13 445.5C352.44 448.4 351.18 447.31 349.34 444.58C348.17 444.41 347.86 446.1 347.76 446.55L345.57 456.58C345.38 457.42 345.76 458.29 346.43 458.53C346.55 458.57 346.67 458.59 346.79 458.59C350.34 458.59 352.02 458.59 356.44 458.59H369.96C373.65 458.59 374.72 454.06 372.26 453.3C365.43 451.4 361.22 449.04 359.11 446.54C358.75 446.08 359.15 445.76 358.73 444.4Z" fill="#263238"/>
<path d="M365.08 447.25C365.39 446.97 365.57 446.52 365.58 446.05C365.61 445.79 365.51 445.54 365.34 445.4C364.42 444.58 360.77 446.74 360.35 446.99C360.3 447.01 360.27 447.06 360.25 447.11C360.22 447.22 360.26 447.33 360.35 447.37C361.25 447.64 362.17 447.79 363.09 447.82C363.78 447.9 364.48 447.7 365.08 447.25ZM365.1 445.74C365.17 445.8 365.21 445.91 365.2 446.02C365.18 446.37 365.05 446.69 364.84 446.9C364.01 447.68 362 447.35 360.92 447.09C362.44 446.25 364.6 445.3 365.1 445.74Z" fill="#407BFF"/>
<path d="M360.47 447.42C361.57 446.84 363.87 444.57 363.75 443.36C363.73 443.11 363.59 442.81 363.09 442.72C361.08 442.43 360.23 446.97 360.23 447.16C360.21 447.24 360.23 447.32 360.28 447.38C360.32 447.39 360.36 447.39 360.39 447.38L360.47 447.42ZM363.02 443.1C363.39 443.15 363.39 443.32 363.39 443.38C363.5 444.11 361.82 446 360.63 446.8C360.88 445.74 361.61 443.09 362.88 443.09L363.02 443.1Z" fill="#407BFF"/>
<path d="M360.76 447.24C359.75 447.41 358.82 448.17 358.28 449.26" stroke="#407BFF" stroke-width="0.5" stroke-miterlimit="10" stroke-linecap="round" stroke-linejoin="round"/>
<path d="M362.58 448.97C361.57 449.14 360.64 449.9 360.1 450.99" stroke="#407BFF" stroke-width="0.5" stroke-miterlimit="10" stroke-linecap="round" stroke-linejoin="round"/>
<path d="M364.84 450.42C363.83 450.59 362.9 451.35 362.36 452.44" stroke="#407BFF" stroke-width="0.5" stroke-miterlimit="10" stroke-linecap="round" stroke-linejoin="round"/>
<path d="M327.87 459.12H323.58L321.7 348.29H329.74L327.87 459.12Z" fill="#263238"/>
<path d="M460.1 458.06H455.82L453.93 350.44H461.98L460.1 458.06Z" fill="#263238"/>
<path d="M412.78 458.06H408.49L406.62 350.44H414.66L412.78 458.06Z" fill="#263238"/>
<path d="M465.61 341.56H319.91V350.44H465.61V341.56Z" fill="#263238"/>
<path opacity="0.3" d="M460.1 458.06H455.82L453.93 350.44H461.98L460.1 458.06Z" fill="white"/>
<path opacity="0.3" d="M412.78 458.06H408.49L406.62 350.44H414.66L412.78 458.06Z" fill="white"/>
<path d="M461.81 348.29H325.72V367.84H461.81V348.29Z" fill="#263238"/>
<path opacity="0.3" d="M461.82 350.44H407.1V367.84H461.82V350.44Z" fill="white"/>
<path opacity="0.2" d="M321.74 350.44L321.83 355.87H461.81V350.44H321.74Z" fill="black"/>
<path d="M432.24 326.6H367.63V333.97H432.24V326.6Z" fill="#263238"/>
<path opacity="0.8" d="M432.24 332.5H404.49C403.31 332.5 402.36 331.55 402.36 330.37C402.36 329.19 403.31 328.24 404.49 328.24H432.24V332.5Z" fill="white"/>
<path opacity="0.3" d="M399.94 326.6H367.63V333.97H399.94V326.6Z" fill="black"/>
<path d="M145.32 288.62L166.16 266.06L174.92 237.16L184.85 238.82C184.85 238.82 180.74 269.27 176.11 276.54C171.48 283.81 156.04 304.18 156.04 304.18L145.32 288.62Z" fill="#E9B376"/>
<path d="M176.19 240.18C176.19 240.18 172.91 238.83 171.82 236.12C171.54 235.43 170.91 233.72 170.67 231.55C170.36 228.69 171.56 227.22 172.74 228.3C173.92 229.38 173.99 232.28 174.66 231.26C175.33 230.24 175.98 219.8 177.07 218.5C178.16 217.2 178.58 218.92 178.58 218.92C178.58 218.92 178.74 216.58 179.83 216.21C180.92 215.84 181.26 217.34 181.26 217.34C181.26 217.34 181.43 215.77 182.52 216.02C183.61 216.26 183.87 225.74 184.12 226.1C184.12 226.1 183.2 220.45 184.46 219.75C185.72 219.04 186.39 222.16 186.99 224.63C187.58 227.1 187.33 230.2 186.64 232.71C185.79 235.83 185.35 240.32 182.42 240.94C179.49 241.55 176.19 240.18 176.19 240.18Z" fill="#E9B376"/>
<g opacity="0.2">
<path d="M181.49 217.69C181.32 220.36 181.24 223.04 181.26 225.7C181.96 225.72 182.65 225.79 183.34 225.9C183.68 225.97 183.46 226.46 183.12 226.4C181.04 226.04 178.86 226.16 176.68 226.75C176.33 226.84 176.27 226.35 176.62 226.26C177.16 226.11 177.69 226 178.23 225.91C178.19 225.88 178.18 225.83 178.17 225.78C178 223.71 178.08 221.61 178.42 219.49C178.48 219.17 179.02 219.16 178.97 219.5C178.64 221.57 178.55 223.63 178.72 225.65C178.72 225.73 179.41 226.21 179.36 226.26C180.05 226.16 180.03 225.69 180.71 225.68C180.69 223.02 180.77 220.35 180.95 217.67C180.97 217.36 181.51 217.36 181.49 217.69Z" fill="black"/>
</g>
<g opacity="0.2">
<path d="M181.19 237.31C180.43 234.22 178.16 232.23 175.35 232.11C175.03 232.1 175.07 231.53 175.39 231.54C178.45 231.66 180.85 233.83 181.68 237.16C181.75 237.51 181.27 237.64 181.19 237.31Z" fill="black"/>
</g>
<path opacity="0.2" d="M183.97 220.84C183.9 222.27 184.07 224.68 184.3 226.09" stroke="black" stroke-width="0.5" stroke-miterlimit="10" stroke-linecap="round" stroke-linejoin="round"/>
<path d="M212.39 221.74L218.94 228.03C218.94 228.03 203.24 226.07 196.85 245.17L161.58 222.18L168.82 209.17L186.55 205.01L212.39 221.74Z" fill="#263238"/>
<path opacity="0.7" d="M212.39 221.74L218.94 228.03C218.94 228.03 203.24 226.07 196.85 245.17L161.58 222.18L168.82 209.17L186.55 205.01L212.39 221.74Z" fill="white"/>
<path d="M159.64 220.84L192.1 241.09C192.1 241.09 198.93 228.08 209.12 223.46C213.97 221.26 216.47 220.83 216.47 220.83L183.5 199.79C183.51 199.8 167.71 198.35 159.64 220.84Z" fill="#263238"/>
<path opacity="0.9" d="M159.64 220.84L192.1 241.09C192.1 241.09 198.93 228.08 209.12 223.46C213.97 221.26 216.47 220.83 216.47 220.83L183.5 199.79C183.51 199.8 167.71 198.35 159.64 220.84Z" fill="white"/>
<path d="M169.51 218.38C171.86 211.88 177.75 206.79 184.52 205.42" stroke="#263238" stroke-width="0.5" stroke-miterlimit="10" stroke-linecap="round" stroke-linejoin="round"/>
<path d="M173.79 221.99C176.14 215.49 182.03 210.4 188.8 209.03" stroke="#263238" stroke-width="0.5" stroke-miterlimit="10" stroke-linecap="round" stroke-linejoin="round"/>
<path d="M178.07 225.6C180.42 219.1 187.17 213.28 193.94 211.9" stroke="#263238" stroke-width="0.5" stroke-miterlimit="10" stroke-linecap="round" stroke-linejoin="round"/>
<path d="M183.06 228.5C185.3 222.33 192.03 216.57 198.5 215.27" stroke="#263238" stroke-width="0.5" stroke-miterlimit="10" stroke-linecap="round" stroke-linejoin="round"/>
<path d="M188.02 231.98C190.26 225.81 196.99 220.05 203.46 218.75" stroke="#263238" stroke-width="0.5" stroke-miterlimit="10" stroke-linecap="round" stroke-linejoin="round"/>
<path d="M171.45 234.52C171.45 234.15 169.85 229.63 170.54 228.54C171.23 227.45 177.09 225.78 176.76 227.11C176.43 228.44 174.94 230.09 174.94 230.09C174.94 230.09 178.5 231.58 178.42 234.9C178.34 238.22 173.96 238.81 173.96 238.81L171.45 234.52Z" fill="#E9B376"/>
<path d="M112.36 372.05C111.56 357.68 109.64 340.57 106.61 325.7C105.86 322.02 101.92 319.5 97.65 319.96L72.83 322.66C68.7 322.93 64.49 324.31 61.89 327.11C57.91 331.4 58.67 337.58 59.65 343.03C61.55 353.69 63.45 364.35 65.35 375.01C65.95 378.38 66.83 382.15 70.1 384.03C72.74 385.55 76.17 385.36 79.32 385.09C87.15 384.43 94.96 383.64 102.76 382.72C105.4 382.41 108.24 382 110.12 380.35C112.48 378.28 112.52 374.98 112.36 372.05Z" fill="#407BFF"/>
<path opacity="0.2" d="M107.17 330.65C106.85 327.83 104.47 325.7 101.63 325.69L80.33 325.63C80.04 325.63 79.74 325.65 79.45 325.7L78.46 325.85C75.33 326.34 73.23 329.32 73.83 332.43L83.41 381.46C87.25 384.76 109.27 382.37 110.8 378.47C112.04 375.32 108.58 343.16 107.17 330.65Z" fill="black"/>
<path d="M124.62 309.3L131.43 308.36L141.27 384.82L134.45 385.75L124.62 309.3Z" fill="#263238"/>
<path d="M81.99 309.3L88.81 308.37L98.64 384.82L91.83 385.75L81.99 309.3Z" fill="#263238"/>
<g opacity="0.3">
<path d="M124.62 309.3L131.43 308.36L141.27 384.82L134.45 385.75L124.62 309.3Z" fill="white"/>
</g>
<g opacity="0.4">
<path d="M81.99 309.3L88.81 308.37L98.64 384.82L91.83 385.75L81.99 309.3Z" fill="white"/>
</g>
<path d="M138.54 340.21H87.14C84.34 340.21 81.98 338.13 81.62 335.35L77.97 306.85C77.67 304.49 79.34 302.33 81.71 302.03C81.89 302.01 82.07 302 82.24 302H133.64C136.44 302 138.81 304.08 139.16 306.86L142.81 335.33C143.12 337.69 141.47 339.86 139.11 340.17C138.92 340.19 138.73 340.21 138.54 340.21Z" fill="#263238"/>
<path opacity="0.6" d="M138.54 340.21H87.14C84.34 340.21 81.98 338.13 81.62 335.35L77.97 306.85C77.67 304.49 79.34 302.33 81.71 302.03C81.89 302.01 82.07 302 82.24 302H133.64C136.44 302 138.81 304.08 139.16 306.86L142.81 335.33C143.12 337.69 141.47 339.86 139.11 340.17C138.92 340.19 138.73 340.21 138.54 340.21Z" fill="white"/>
<path d="M132.89 457.38H142.48L143.66 406.7L144.15 385.29H131.23L131.72 406.7L132.89 457.38Z" fill="#263238"/>
<path opacity="0.4" d="M132.89 457.38H142.48L143.66 406.7L144.15 385.29H131.23L131.72 406.7L132.89 457.38Z" fill="white"/>
<path opacity="0.2" d="M144.15 385.29L143.66 407.29H131.72L131.23 385.29H144.15Z" fill="black"/>
<path d="M181.85 457.38L177.68 386.8H166.45L172.28 457.38H181.85Z" fill="#263238"/>
<path opacity="0.5" d="M172.27 457.38H181.84L178.3 397.25L177.68 386.66H166.45L167.32 397.25L172.27 457.38Z" fill="white"/>
<path d="M103.09 457.38L108.93 386.8H97.69L93.52 457.38H103.09Z" fill="#263238"/>
<path opacity="0.5" d="M103.1 457.38L108.05 397.25L108.92 386.66H97.69L97.07 397.25L93.53 457.38H103.1Z" fill="white"/>
<path opacity="0.2" d="M108.92 386.66L108.05 397.66H97.07L97.69 386.66H108.92Z" fill="black"/>
<path d="M91.28 382.78H184.09C186.31 382.78 188.11 384.58 188.11 386.8C188.11 389.02 186.31 390.82 184.09 390.82H91.28C89.06 390.82 87.26 389.02 87.26 386.8C87.26 384.58 89.06 382.78 91.28 382.78Z" fill="#263238"/>
<path opacity="0.6" d="M91.28 382.78H184.09C186.31 382.78 188.11 384.58 188.11 386.8C188.11 389.02 186.31 390.82 184.09 390.82H91.28C89.06 390.82 87.26 389.02 87.26 386.8C87.26 384.58 89.06 382.78 91.28 382.78Z" fill="white"/>
<path d="M86.37 302L76.17 364.49L81.07 374.97C81.07 374.97 91.08 326.77 92.75 317.4C94.43 308.03 93.88 301.99 93.88 301.99C91.58 301.59 89.05 301.36 86.37 302Z" fill="#407BFF"/>
<path d="M77.94 308.58L70.47 322.94V323.81L79.9 321.89L77.94 308.58Z" fill="#407BFF"/>
<path opacity="0.3" d="M75.16 363.95C76.21 359.69 76.81 357.2 77.86 352.94" stroke="#263238" stroke-width="0.5" stroke-miterlimit="10" stroke-linecap="round" stroke-linejoin="round"/>
<path opacity="0.3" d="M68.51 327.51C69.89 325.27 72.44 319.39 72.44 319.39" stroke="#263238" stroke-width="0.5" stroke-miterlimit="10" stroke-linecap="round" stroke-linejoin="round"/>
<path opacity="0.3" d="M67.99 363.95C67.99 363.95 64.64 346.32 62.98 331.58C62.98 331.58 62.75 326.16 65.47 324.51" stroke="#263238" stroke-width="0.5" stroke-miterlimit="10" stroke-linecap="round" stroke-linejoin="round"/>
<path opacity="0.2" d="M156.19 387.97L157.05 398.97H168.04L167.42 387.97H156.19Z" fill="black"/>
<path d="M159.79 375.31L176.85 384.38C176.85 384.38 172.25 396.99 171.36 402.9C169.5 415.23 170.27 447.42 170.27 447.42L179 447.84C179 447.84 194.61 395.42 196.68 387.77C198.69 380.34 200.13 374.82 196.68 370.24C193.23 365.65 171.59 358.81 171.59 358.81L159.79 375.31Z" fill="#E9B376"/>
<path d="M171.53 384.09C164.39 383.09 149.8 380.71 138.63 380.14L125.63 379.5C96.7 377.98 154.1 351.58 154.1 351.58C154.1 351.58 173.27 357.01 188.4 363.06C180.54 370.63 177.41 377.91 171.53 384.09Z" fill="#407BFF"/>
<path d="M103.96 352.02C103.96 352.02 102.2 356.05 102.07 363.85C101.9 374.66 106.61 383.8 125.79 383.8C160.9 383.8 157.64 364.9 154.67 348.24L103.96 352.02Z" fill="#407BFF"/>
<path opacity="0.2" d="M146.04 356.11L153.53 352.6L153.87 357.07C153.87 357.07 168.04 365.98 173.18 370.89C178.21 375.69 173.59 381.87 173.59 381.87L168.95 387.87L149.24 381.34L146.04 356.11Z" fill="black"/>
<path d="M133.89 382.16L151.77 390.08C151.77 390.08 147.07 404.07 146.43 410.01C145.45 419.1 143.98 451.59 143.98 451.59L153.17 449.26C153.17 449.26 169.53 401.12 171.59 393.47C173.6 386.04 175.04 380.52 171.59 375.94C168.14 371.35 148.93 361.12 148.93 361.12L133.89 382.16Z" fill="#E9B376"/>
<path d="M146.27 388.11C135.45 386.37 125.32 386.08 114.89 382.73C112.12 381.82 105.52 367.98 106.2 363.27C108.56 346.73 142.5 353.31 142.5 353.31C142.5 353.31 158.02 364.88 165.32 369.29L146.27 388.11Z" fill="#407BFF"/>
<path d="M170.23 445.63L170.11 432.18H183.65L179.27 447.24L174.4 450.42L170.23 445.63Z" fill="#407BFF"/>
<path opacity="0.7" d="M170.23 445.63L170.11 432.18H183.65L179.27 447.24L174.4 450.42L170.23 445.63Z" fill="white"/>
<path d="M179.69 444.4H176.76C176.1 444.4 175.49 444.82 175.09 445.5C173.4 448.4 172.14 447.31 170.3 444.58C169.13 444.41 168.82 446.1 168.72 446.55L166.53 456.58C166.34 457.42 166.72 458.29 167.39 458.53C167.51 458.57 167.63 458.59 167.75 458.59C171.3 458.59 172.98 458.59 177.4 458.59H190.92C194.61 458.59 195.68 454.06 193.22 453.3C186.39 451.4 182.18 449.04 180.07 446.54C179.71 446.08 180.12 445.76 179.69 444.4Z" fill="#407BFF"/>
<path opacity="0.7" d="M194.22 456.64H166.54C166.39 457.45 166.77 458.28 167.41 458.51C167.53 458.55 167.65 458.57 167.77 458.57C171.32 458.57 173 458.57 177.42 458.57H190.94C192.57 458.58 193.69 457.7 194.22 456.64Z" fill="white"/>
<path d="M186.04 447.25C186.35 446.97 186.53 446.52 186.54 446.05C186.57 445.79 186.47 445.54 186.3 445.4C185.38 444.58 181.73 446.74 181.32 446.99C181.27 447.01 181.24 447.06 181.22 447.11C181.19 447.22 181.23 447.33 181.32 447.37C182.22 447.64 183.14 447.79 184.06 447.82C184.74 447.9 185.44 447.7 186.04 447.25ZM186.07 445.74C186.14 445.8 186.18 445.91 186.17 446.02C186.15 446.37 186.02 446.69 185.81 446.9C184.98 447.68 182.97 447.35 181.89 447.09C183.4 446.25 185.56 445.3 186.07 445.74Z" fill="#263238"/>
<path d="M181.44 447.42C182.54 446.84 184.84 444.57 184.72 443.36C184.7 443.11 184.56 442.81 184.06 442.72C182.05 442.43 181.2 446.97 181.2 447.16C181.18 447.24 181.2 447.32 181.25 447.38C181.29 447.39 181.33 447.39 181.36 447.38L181.44 447.42ZM183.99 443.1C184.36 443.15 184.36 443.32 184.36 443.38C184.47 444.11 182.79 446 181.6 446.8C181.85 445.74 182.58 443.09 183.85 443.09L183.99 443.1Z" fill="#263238"/>
<path d="M181.72 447.24C180.71 447.41 179.78 448.17 179.24 449.26" stroke="#263238" stroke-width="0.5" stroke-miterlimit="10" stroke-linecap="round" stroke-linejoin="round"/>
<path d="M183.54 448.97C182.53 449.14 181.6 449.9 181.06 450.99" stroke="#263238" stroke-width="0.5" stroke-miterlimit="10" stroke-linecap="round" stroke-linejoin="round"/>
<path d="M185.8 450.42C184.79 450.59 183.86 451.35 183.32 452.44" stroke="#263238" stroke-width="0.5" stroke-miterlimit="10" stroke-linecap="round" stroke-linejoin="round"/>
<path opacity="0.2" d="M167.44 452.47C167.44 452.47 166.26 455.92 166.46 456.81C166.67 457.7 167.33 458.48 167.33 458.48C167.33 458.48 168.41 458.59 169.02 458.04C169.17 457.91 169.41 457.62 169.7 457.25C170.88 455.74 170.26 453.51 168.46 452.85L167.44 452.47Z" fill="black"/>
<path d="M144.15 445.44L145.03 430.61L159.12 431.64L154.33 446.51L147.89 450.42L144.15 445.44Z" fill="#407BFF"/>
<path opacity="0.7" d="M144.15 445.44L145.03 430.61L159.12 431.64L154.33 446.51L147.89 450.42L144.15 445.44Z" fill="white"/>
<path d="M154.78 444.4H151.85C151.19 444.4 150.58 444.82 150.18 445.5C148.49 448.4 147.23 447.31 145.39 444.58C144.22 444.41 143.91 446.1 143.81 446.55L141.62 456.58C141.43 457.42 141.81 458.29 142.48 458.53C142.6 458.57 142.72 458.59 142.84 458.59C146.39 458.59 148.07 458.59 152.49 458.59H166.01C169.7 458.59 170.77 454.06 168.31 453.3C161.48 451.4 157.27 449.04 155.16 446.54C154.81 446.08 155.21 445.76 154.78 444.4Z" fill="#407BFF"/>
<path d="M161.13 447.25C161.44 446.97 161.62 446.52 161.63 446.05C161.66 445.79 161.56 445.54 161.39 445.4C160.47 444.58 156.82 446.74 156.4 446.99C156.35 447.01 156.32 447.06 156.3 447.11C156.27 447.22 156.31 447.33 156.4 447.37C157.3 447.64 158.22 447.79 159.14 447.82C159.84 447.9 160.53 447.7 161.13 447.25ZM161.16 445.74C161.23 445.8 161.27 445.91 161.26 446.02C161.24 446.37 161.11 446.69 160.9 446.9C160.07 447.68 158.06 447.35 156.98 447.09C158.49 446.25 160.65 445.3 161.16 445.74Z" fill="#263238"/>
<path d="M156.53 447.42C157.63 446.84 159.93 444.57 159.81 443.36C159.79 443.11 159.65 442.81 159.15 442.72C157.14 442.43 156.29 446.97 156.29 447.16C156.27 447.24 156.29 447.32 156.34 447.38C156.38 447.39 156.42 447.39 156.45 447.38L156.53 447.42ZM159.08 443.1C159.45 443.15 159.45 443.32 159.45 443.38C159.56 444.11 157.88 446 156.69 446.8C156.94 445.74 157.67 443.09 158.94 443.09L159.08 443.1Z" fill="#263238"/>
<path d="M156.81 447.24C155.8 447.41 154.87 448.17 154.33 449.26" stroke="#263238" stroke-width="0.5" stroke-miterlimit="10" stroke-linecap="round" stroke-linejoin="round"/>
<path d="M158.63 448.97C157.62 449.14 156.69 449.9 156.15 450.99" stroke="#263238" stroke-width="0.5" stroke-miterlimit="10" stroke-linecap="round" stroke-linejoin="round"/>
<path d="M160.89 450.42C159.88 450.59 158.95 451.35 158.41 452.44" stroke="#263238" stroke-width="0.5" stroke-miterlimit="10" stroke-linecap="round" stroke-linejoin="round"/>
<path opacity="0.7" d="M169.31 456.64H141.63C141.48 457.45 141.86 458.28 142.5 458.51C142.62 458.55 142.74 458.57 142.86 458.57C146.41 458.57 148.09 458.57 152.51 458.57H166.03C167.66 458.58 168.78 457.7 169.31 456.64Z" fill="white"/>
<path d="M142.91 288.05L158.88 273.09L174.17 284.59C174.17 284.59 157.17 305.89 153.87 309.21C150.58 312.53 142.91 288.05 142.91 288.05Z" fill="#407BFF"/>
<path opacity="0.4" d="M142.91 288.05L158.88 273.09L174.17 284.59C174.17 284.59 157.17 305.89 153.87 309.21C150.58 312.53 142.91 288.05 142.91 288.05Z" fill="black"/>
<path opacity="0.4" d="M154.42 308.58C153.14 303.03 151.85 297.47 150.57 291.92L157.49 305.09L154.42 308.58Z" fill="black"/>
<path d="M101.96 356.61C103.1 351.53 102.83 343.23 102.83 343.23C102.83 324.69 103.54 301.76 104.23 295.35C104.5 292.83 100.91 289.74 107.43 287.9C110.14 287.13 114.12 286.5 119.14 286.21C126.1 285.8 135.01 285.94 144.94 286.22C144.94 286.22 148.97 293.39 153.87 306.99C153.87 306.99 155.39 321.24 156.44 330.44L159.2 351.31C155.51 357.03 135.41 361.4 101.96 356.61Z" fill="#407BFF"/>
<path opacity="0.4" d="M102.03 356.89C103.17 351.81 102.9 343.51 102.9 343.51C102.9 324.97 103.61 302.04 104.3 295.63C104.57 293.11 101.64 289.62 108.15 287.78C110.77 287.04 114.47 286.43 119.13 286.21C125.98 285.89 134.76 285.93 144.93 286.22C144.93 286.22 148.97 293.41 153.86 307.01C153.86 307.01 155.46 321.52 156.5 330.72L159.26 351.59C155.59 357.31 135.49 361.69 102.03 356.89Z" fill="black"/>
<path d="M95.16 303.43L95.48 323.81L114.78 319.87C114.78 319.87 115.38 304.69 115.1 293.97C114.96 288.35 111.71 287.18 107.87 287.81C100.37 289.05 95.04 295.83 95.16 303.43Z" fill="#407BFF"/>
<path opacity="0.4" d="M95.16 303.43L95.48 323.81L114.78 319.87C114.78 319.87 115.38 304.69 115.1 293.97C114.96 288.35 111.71 287.18 107.87 287.81C100.37 289.05 95.04 295.83 95.16 303.43Z" fill="black"/>
<path opacity="0.4" d="M114.6 322.29L119.03 321.1C119.03 321.1 116.29 302.33 116.18 302.66C116.07 302.99 116.82 319.2 116.82 319.2L113.63 320.11L114.6 322.29Z" fill="black"/>
<path d="M116.94 459.12H112.65L110.78 348.29H118.82L116.94 459.12Z" fill="#263238"/>
<path d="M249.18 458.06H244.9L243.01 350.44H251.06L249.18 458.06Z" fill="#263238"/>
<path d="M201.86 458.06H197.57L195.69 350.44H203.74L201.86 458.06Z" fill="#263238"/>
<path d="M254.69 341.56H108.99V350.44H254.69V341.56Z" fill="#263238"/>
<path opacity="0.3" d="M249.18 458.06H244.9L243.01 350.44H251.06L249.18 458.06Z" fill="white"/>
<path opacity="0.3" d="M201.86 458.06H197.57L195.69 350.44H203.74L201.86 458.06Z" fill="white"/>
<path d="M250.89 348.29H114.8V367.84H250.89V348.29Z" fill="#263238"/>
<path opacity="0.3" d="M250.89 350.44H196.17V367.84H250.89V350.44Z" fill="white"/>
<path opacity="0.2" d="M110.81 350.44L110.91 355.87H250.89V350.44H110.81Z" fill="black"/>
<path d="M209.93 334.16H145.32V341.53H209.93V334.16Z" fill="#407BFF"/>
<path opacity="0.8" d="M209.93 335.8H180.05V340.06H209.93V335.8Z" fill="white"/>
<path opacity="0.2" d="M177.63 334.16H145.32V341.53H177.63V334.16Z" fill="black"/>
<path d="M214.41 326.79H149.8V334.16H214.41V326.79Z" fill="#263238"/>
<path opacity="0.8" d="M214.42 332.68H186.67C185.49 332.68 184.54 331.73 184.54 330.55C184.54 329.37 185.49 328.42 186.67 328.42H214.42V332.68Z" fill="white"/>
<path opacity="0.3" d="M182.11 326.79H149.8V334.16H182.11V326.79Z" fill="black"/>
<path d="M98.92 323.11C98.92 323.11 100.79 337.62 102.53 340.93C103.26 342.31 106.31 345.27 110.39 345.17C121.51 344.91 144.48 338.19 144.15 337.17L141.55 328.24L116.36 331.11L114.14 320.01L98.92 323.11Z" fill="#E9B376"/>
<path d="M139.29 330.49C139.29 330.49 139.79 326.98 142.15 325.25C144.51 323.52 145.93 321.51 147.78 320.34C149.62 319.17 150.08 321.3 149.32 322.71C148.56 324.12 146.41 326.41 147.56 326.81C148.71 327.21 158.99 325.26 160.52 326C162.05 326.73 160.49 327.57 160.49 327.57C160.49 327.57 162.8 327.15 163.43 328.11C164.06 329.07 162.69 329.77 162.69 329.77C162.69 329.77 164.25 329.54 164.28 330.66C164.31 331.78 155.2 334.37 154.91 334.7C154.91 334.7 160.15 332.41 161.15 333.46C162.14 334.5 159.29 335.93 157.04 337.11C154.79 338.29 151.72 338.82 149.13 338.77C145.89 338.71 141.43 339.41 140.11 336.71C138.78 334.02 139.29 330.49 139.29 330.49Z" fill="#E9B376"/>
<path d="M121.65 266.91C122.16 270.57 121.87 274.02 121.66 277.71C121.58 280.19 120.15 283.93 119.14 286.2L134.45 295.84C134.07 286.66 134.58 280.92 140.17 278.62C147.8 275.39 121.65 266.91 121.65 266.91Z" fill="#E9B376"/>
<path opacity="0.2" d="M121.65 266.91C122.16 270.57 122.31 274.28 122.1 277.97C125.27 282.69 129.34 287.21 134.57 288.97C134.45 286.97 134.57 280.87 140.16 278.57C147.8 275.39 121.65 266.91 121.65 266.91Z" fill="black"/>
<path d="M141.11 237.79C141.11 237.79 148.97 242.25 147.63 251.24C146.29 260.23 131.63 244.94 131.63 244.94L141.11 237.79Z" fill="#263238"/>
<path d="M110.99 261.38C116.51 272.12 119.11 278.71 127.82 281.66C140.93 286.14 154.12 274.49 152.34 262.17C150.8 251.07 142.02 235.4 127.95 236.22C113.88 237.04 105.49 250.67 110.99 261.38Z" fill="#E9B376"/>
<path d="M132.43 259.98C132.81 261.12 133.74 261.85 134.49 261.58C135.24 261.31 135.49 260.19 135.13 259.05C134.77 257.91 133.81 257.19 133.06 257.45C132.31 257.71 132.08 258.84 132.43 259.98Z" fill="#263238"/>
<path d="M143.43 254.07C143.82 255.21 144.75 255.94 145.49 255.67C146.23 255.4 146.49 254.27 146.13 253.13C145.77 251.99 144.82 251.28 144.07 251.53C143.32 251.78 143.06 252.93 143.43 254.07Z" fill="#263238"/>
<path d="M132.15 250.91C132.21 250.77 132.22 250.63 132.2 250.48C132.07 250.11 131.67 249.91 131.29 250.03C129.1 250.68 127.37 252.37 126.67 254.55C126.57 254.92 126.79 255.31 127.16 255.41C127.16 255.41 127.16 255.41 127.17 255.41C127.55 255.5 127.93 255.28 128.04 254.91C128.64 253.19 130.04 251.87 131.8 251.38C131.97 251.28 132.1 251.11 132.15 250.91Z" fill="#263238"/>
<path d="M146.07 245.49C146.2 245.41 146.3 245.3 146.36 245.17C146.48 244.79 146.27 244.39 145.9 244.27C143.74 243.52 141.35 243.86 139.5 245.2C139.19 245.44 139.14 245.88 139.38 246.18C139.38 246.19 139.39 246.19 139.39 246.2C139.64 246.49 140.08 246.54 140.39 246.31C141.89 245.27 143.8 245.03 145.51 245.67C145.71 245.7 145.91 245.63 146.07 245.49Z" fill="#263238"/>
<path d="M141.8 258.12L146.01 259.55C146.01 259.55 145.61 261.2 142.56 262.64L141.8 258.12Z" fill="#D58745"/>
<path d="M107.25 253.79C107.25 253.79 101.63 247.12 108.85 241.24C111.02 239.48 115.11 233.33 117.55 229.5C118.75 227.62 121.69 228.01 122.23 230.17L122.24 230.22C123.68 229.03 125.06 227.77 126.38 226.46C128.86 224 132.85 223.99 135.46 226.32C137.38 228.03 139.11 230.03 139.24 231.72L140.76 230.39C142.23 229.11 144.49 230.41 144.11 232.32C143.24 236.71 141.3 242.36 137.02 243.74C129.77 246.07 122.26 245.2 124.74 255.08C127.22 264.96 122.03 268.37 122.03 268.37L121.64 278.21C121.64 278.21 112.64 277.36 108.14 267.43C103.64 257.5 107.25 253.79 107.25 253.79Z" fill="#263238"/>
<path d="M123.37 265.08C123.37 265.08 118.59 259.57 115.93 262.63C113.27 265.69 117.32 276.14 122.22 274.58C127.12 273.02 126.68 267.81 123.37 265.08Z" fill="#E9B376"/>
<path d="M144.87 266.08C145.17 267.49 144.59 270.14 144.23 271.08L143.34 271.17C139.34 271.56 137.34 270.41 136.34 269.01C135.62 267.91 135.3 266.59 135.45 265.28C137.71 266.35 141.45 266.28 143.51 266.16C144.34 266.15 144.87 266.08 144.87 266.08Z" fill="#263238"/>
<path d="M143.49 266.19L143.26 267.67C139.47 268.02 136.75 267.76 135.45 266.73C135.38 266.26 135.38 265.78 135.45 265.31C137.69 266.38 141.43 266.31 143.49 266.19Z" fill="white"/>
<path d="M143.34 271.2C139.34 271.59 137.34 270.44 136.34 269.04C137.88 268.92 139.42 269.08 140.9 269.5C141.87 269.81 142.72 270.4 143.34 271.2Z" fill="#C05854"/>
<path opacity="0.3" d="M118.82 265.69C117.86 267.67 119.14 270.29 121.1 271.52" stroke="black" stroke-width="0.5" stroke-miterlimit="10" stroke-linecap="round" stroke-linejoin="round"/>
</g>
<defs>
<clipPath id="clip0_1_2">
<rect width="500" height="500" fill="white"/>
</clipPath>
</defs>
</svg>
